<svg xmlns="http://www.w3.org/2000/svg" width="800" height="800" viewBox="0 0 640 640">
  <defs>
    <linearGradient id="bg" x1="0" y1="0" x2="0" y2="1">
      <stop offset="0%" stop-color="#FAFAF8"/>
      <stop offset="55%" stop-color="#F3F3F1"/>
      <stop offset="100%" stop-color="#E8E4DA"/>
    </linearGradient>
    <linearGradient id="glow" x1="0" y1="0" x2="0" y2="1">
      <stop offset="0%" stop-color="#FFE600" stop-opacity="0.15"/>
      <stop offset="100%" stop-color="#FFE600" stop-opacity="0.55"/>
    </linearGradient>
    <filter id="soft" x="-20%" y="-20%" width="140%" height="140%">
      <feDropShadow dx="0" dy="14" stdDeviation="12" flood-color="#0A0A0A" flood-opacity="0.18"/>
    </filter>
  </defs>
  <rect width="640" height="640" fill="url(#bg)"/>
  <rect x="24" y="24" width="592" height="592" fill="none" stroke="#0A0A0A" stroke-width="4"/>
  <rect x="24" y="24" width="592" height="72" fill="#FFE600" stroke="#0A0A0A" stroke-width="4"/>
  <text x="44" y="70" font-family="Arial Black, Helvetica, sans-serif" font-size="28" fill="#0A0A0A">3D GESCHENKE</text>
  
      <ellipse cx="320" cy="510" rx="140" ry="26" fill="#000" opacity="0.12"/>
      <g filter="url(#soft)">
        <path d="M320 420 C260 360 180 300 180 250 C180 200 220 180 260 200 C290 214 305 240 320 260 C335 240 350 214 380 200 C420 180 460 200 460 250 C460 300 380 360 320 420Z" fill="#FF5A3C" stroke="#0A0A0A" stroke-width="5"/>
        <path d="M250 280 L390 280 L370 380 L270 380 Z" fill="#E04830" stroke="#0A0A0A" stroke-width="3"/>
      </g>
  <text x="44" y="600" font-family="Arial Black,sans-serif" font-size="22" fill="#0A0A0A">Herzbox</text>
</svg>
