solid PL_FLEXI_DINO
  facet normal 0.000000 0.000000 1.000000
    outer loop
      vertex 0.0000 0.0000 0.0000
      vertex 90.0000 0.0000 0.0000
      vertex 90.0000 30.0000 0.0000
    endloop
  endfacet
  facet normal 0.000000 0.000000 1.000000
    outer loop
      vertex 0.0000 0.0000 0.0000
      vertex 90.0000 30.0000 0.0000
      vertex 0.0000 30.0000 0.0000
    endloop
  endfacet
  facet normal 0.000000 0.000000 -1.000000
    outer loop
      vertex 0.0000 0.0000 25.0000
      vertex 90.0000 30.0000 25.0000
      vertex 90.0000 0.0000 25.0000
    endloop
  endfacet
  facet normal 0.000000 0.000000 -1.000000
    outer loop
      vertex 0.0000 0.0000 25.0000
      vertex 0.0000 30.0000 25.0000
      vertex 90.0000 30.0000 25.0000
    endloop
  endfacet
  facet normal 0.000000 1.000000 0.000000
    outer loop
      vertex 0.0000 0.0000 0.0000
      vertex 0.0000 0.0000 25.0000
      vertex 90.0000 0.0000 25.0000
    endloop
  endfacet
  facet normal 0.000000 1.000000 0.000000
    outer loop
      vertex 0.0000 0.0000 0.0000
      vertex 90.0000 0.0000 25.0000
      vertex 90.0000 0.0000 0.0000
    endloop
  endfacet
  facet normal 0.000000 -1.000000 0.000000
    outer loop
      vertex 0.0000 30.0000 0.0000
      vertex 90.0000 30.0000 0.0000
      vertex 90.0000 30.0000 25.0000
    endloop
  endfacet
  facet normal 0.000000 -1.000000 0.000000
    outer loop
      vertex 0.0000 30.0000 0.0000
      vertex 90.0000 30.0000 25.0000
      vertex 0.0000 30.0000 25.0000
    endloop
  endfacet
  facet normal 1.000000 0.000000 0.000000
    outer loop
      vertex 0.0000 0.0000 0.0000
      vertex 0.0000 30.0000 0.0000
      vertex 0.0000 30.0000 25.0000
    endloop
  endfacet
  facet normal 1.000000 0.000000 0.000000
    outer loop
      vertex 0.0000 0.0000 0.0000
      vertex 0.0000 30.0000 25.0000
      vertex 0.0000 0.0000 25.0000
    endloop
  endfacet
  facet normal -1.000000 0.000000 0.000000
    outer loop
      vertex 90.0000 0.0000 0.0000
      vertex 90.0000 0.0000 25.0000
      vertex 90.0000 30.0000 25.0000
    endloop
  endfacet
  facet normal -1.000000 0.000000 0.000000
    outer loop
      vertex 90.0000 0.0000 0.0000
      vertex 90.0000 30.0000 25.0000
      vertex 90.0000 30.0000 0.0000
    endloop
  endfacet
endsolid PL_FLEXI_DINO
