solid PL_HEX_HOOK
  facet normal 0.000000 0.000000 1.000000
    outer loop
      vertex 0.0000 0.0000 0.0000
      vertex 50.0000 0.0000 0.0000
      vertex 50.0000 30.0000 0.0000
    endloop
  endfacet
  facet normal 0.000000 0.000000 1.000000
    outer loop
      vertex 0.0000 0.0000 0.0000
      vertex 50.0000 30.0000 0.0000
      vertex 0.0000 30.0000 0.0000
    endloop
  endfacet
  facet normal 0.000000 0.000000 -1.000000
    outer loop
      vertex 0.0000 0.0000 12.0000
      vertex 50.0000 30.0000 12.0000
      vertex 50.0000 0.0000 12.0000
    endloop
  endfacet
  facet normal 0.000000 0.000000 -1.000000
    outer loop
      vertex 0.0000 0.0000 12.0000
      vertex 0.0000 30.0000 12.0000
      vertex 50.0000 30.0000 12.0000
    endloop
  endfacet
  facet normal 0.000000 1.000000 0.000000
    outer loop
      vertex 0.0000 0.0000 0.0000
      vertex 0.0000 0.0000 12.0000
      vertex 50.0000 0.0000 12.0000
    endloop
  endfacet
  facet normal 0.000000 1.000000 0.000000
    outer loop
      vertex 0.0000 0.0000 0.0000
      vertex 50.0000 0.0000 12.0000
      vertex 50.0000 0.0000 0.0000
    endloop
  endfacet
  facet normal 0.000000 -1.000000 0.000000
    outer loop
      vertex 0.0000 30.0000 0.0000
      vertex 50.0000 30.0000 0.0000
      vertex 50.0000 30.0000 12.0000
    endloop
  endfacet
  facet normal 0.000000 -1.000000 0.000000
    outer loop
      vertex 0.0000 30.0000 0.0000
      vertex 50.0000 30.0000 12.0000
      vertex 0.0000 30.0000 12.0000
    endloop
  endfacet
  facet normal 1.000000 0.000000 0.000000
    outer loop
      vertex 0.0000 0.0000 0.0000
      vertex 0.0000 30.0000 0.0000
      vertex 0.0000 30.0000 12.0000
    endloop
  endfacet
  facet normal 1.000000 0.000000 0.000000
    outer loop
      vertex 0.0000 0.0000 0.0000
      vertex 0.0000 30.0000 12.0000
      vertex 0.0000 0.0000 12.0000
    endloop
  endfacet
  facet normal -1.000000 0.000000 0.000000
    outer loop
      vertex 50.0000 0.0000 0.0000
      vertex 50.0000 0.0000 12.0000
      vertex 50.0000 30.0000 12.0000
    endloop
  endfacet
  facet normal -1.000000 0.000000 0.000000
    outer loop
      vertex 50.0000 0.0000 0.0000
      vertex 50.0000 30.0000 12.0000
      vertex 50.0000 30.0000 0.0000
    endloop
  endfacet
  facet normal 0.000000 0.000000 1.000000
    outer loop
      vertex 15.0000 0.0000 0.0000
      vertex 32.5000 0.0000 0.0000
      vertex 32.5000 30.0000 0.0000
    endloop
  endfacet
  facet normal 0.000000 0.000000 1.000000
    outer loop
      vertex 15.0000 0.0000 0.0000
      vertex 32.5000 30.0000 0.0000
      vertex 15.0000 30.0000 0.0000
    endloop
  endfacet
  facet normal 0.000000 0.000000 -1.000000
    outer loop
      vertex 15.0000 0.0000 40.0000
      vertex 32.5000 30.0000 40.0000
      vertex 32.5000 0.0000 40.0000
    endloop
  endfacet
  facet normal 0.000000 0.000000 -1.000000
    outer loop
      vertex 15.0000 0.0000 40.0000
      vertex 15.0000 30.0000 40.0000
      vertex 32.5000 30.0000 40.0000
    endloop
  endfacet
  facet normal 0.000000 1.000000 0.000000
    outer loop
      vertex 15.0000 0.0000 0.0000
      vertex 15.0000 0.0000 40.0000
      vertex 32.5000 0.0000 40.0000
    endloop
  endfacet
  facet normal 0.000000 1.000000 0.000000
    outer loop
      vertex 15.0000 0.0000 0.0000
      vertex 32.5000 0.0000 40.0000
      vertex 32.5000 0.0000 0.0000
    endloop
  endfacet
  facet normal 0.000000 -1.000000 0.000000
    outer loop
      vertex 15.0000 30.0000 0.0000
      vertex 32.5000 30.0000 0.0000
      vertex 32.5000 30.0000 40.0000
    endloop
  endfacet
  facet normal 0.000000 -1.000000 0.000000
    outer loop
      vertex 15.0000 30.0000 0.0000
      vertex 32.5000 30.0000 40.0000
      vertex 15.0000 30.0000 40.0000
    endloop
  endfacet
  facet normal 1.000000 0.000000 0.000000
    outer loop
      vertex 15.0000 0.0000 0.0000
      vertex 15.0000 30.0000 0.0000
      vertex 15.0000 30.0000 40.0000
    endloop
  endfacet
  facet normal 1.000000 0.000000 0.000000
    outer loop
      vertex 15.0000 0.0000 0.0000
      vertex 15.0000 30.0000 40.0000
      vertex 15.0000 0.0000 40.0000
    endloop
  endfacet
  facet normal -1.000000 0.000000 0.000000
    outer loop
      vertex 32.5000 0.0000 0.0000
      vertex 32.5000 0.0000 40.0000
      vertex 32.5000 30.0000 40.0000
    endloop
  endfacet
  facet normal -1.000000 0.000000 0.000000
    outer loop
      vertex 32.5000 0.0000 0.0000
      vertex 32.5000 30.0000 40.0000
      vertex 32.5000 30.0000 0.0000
    endloop
  endfacet
endsolid PL_HEX_HOOK
