solid PL_MINI_POT
  facet normal 0.000000 0.000000 -1.000000
    outer loop
      vertex 0.0000 0.0000 0.0000
      vertex 36.2222 9.7057 0.0000
      vertex 37.5000 0.0000 0.0000
    endloop
  endfacet
  facet normal 0.000000 0.000000 1.000000
    outer loop
      vertex 0.0000 0.0000 70.0000
      vertex 37.5000 0.0000 70.0000
      vertex 36.2222 9.7057 70.0000
    endloop
  endfacet
  facet normal 0.991445 0.130526 0.000000
    outer loop
      vertex 37.5000 0.0000 0.0000
      vertex 36.2222 9.7057 0.0000
      vertex 36.2222 9.7057 70.0000
    endloop
  endfacet
  facet normal 0.991445 0.130526 -0.000000
    outer loop
      vertex 37.5000 0.0000 0.0000
      vertex 36.2222 9.7057 70.0000
      vertex 37.5000 0.0000 70.0000
    endloop
  endfacet
  facet normal 0.000000 0.000000 -1.000000
    outer loop
      vertex 0.0000 0.0000 0.0000
      vertex 32.4760 18.7500 0.0000
      vertex 36.2222 9.7057 0.0000
    endloop
  endfacet
  facet normal 0.000000 0.000000 1.000000
    outer loop
      vertex 0.0000 0.0000 70.0000
      vertex 36.2222 9.7057 70.0000
      vertex 32.4760 18.7500 70.0000
    endloop
  endfacet
  facet normal 0.923880 0.382683 0.000000
    outer loop
      vertex 36.2222 9.7057 0.0000
      vertex 32.4760 18.7500 0.0000
      vertex 32.4760 18.7500 70.0000
    endloop
  endfacet
  facet normal 0.923880 0.382683 -0.000000
    outer loop
      vertex 36.2222 9.7057 0.0000
      vertex 32.4760 18.7500 70.0000
      vertex 36.2222 9.7057 70.0000
    endloop
  endfacet
  facet normal 0.000000 0.000000 -1.000000
    outer loop
      vertex 0.0000 0.0000 0.0000
      vertex 26.5165 26.5165 0.0000
      vertex 32.4760 18.7500 0.0000
    endloop
  endfacet
  facet normal 0.000000 0.000000 1.000000
    outer loop
      vertex 0.0000 0.0000 70.0000
      vertex 32.4760 18.7500 70.0000
      vertex 26.5165 26.5165 70.0000
    endloop
  endfacet
  facet normal 0.793353 0.608761 0.000000
    outer loop
      vertex 32.4760 18.7500 0.0000
      vertex 26.5165 26.5165 0.0000
      vertex 26.5165 26.5165 70.0000
    endloop
  endfacet
  facet normal 0.793353 0.608761 -0.000000
    outer loop
      vertex 32.4760 18.7500 0.0000
      vertex 26.5165 26.5165 70.0000
      vertex 32.4760 18.7500 70.0000
    endloop
  endfacet
  facet normal 0.000000 0.000000 -1.000000
    outer loop
      vertex 0.0000 0.0000 0.0000
      vertex 18.7500 32.4760 0.0000
      vertex 26.5165 26.5165 0.0000
    endloop
  endfacet
  facet normal 0.000000 0.000000 1.000000
    outer loop
      vertex 0.0000 0.0000 70.0000
      vertex 26.5165 26.5165 70.0000
      vertex 18.7500 32.4760 70.0000
    endloop
  endfacet
  facet normal 0.608761 0.793353 0.000000
    outer loop
      vertex 26.5165 26.5165 0.0000
      vertex 18.7500 32.4760 0.0000
      vertex 18.7500 32.4760 70.0000
    endloop
  endfacet
  facet normal 0.608761 0.793353 -0.000000
    outer loop
      vertex 26.5165 26.5165 0.0000
      vertex 18.7500 32.4760 70.0000
      vertex 26.5165 26.5165 70.0000
    endloop
  endfacet
  facet normal 0.000000 0.000000 -1.000000
    outer loop
      vertex 0.0000 0.0000 0.0000
      vertex 9.7057 36.2222 0.0000
      vertex 18.7500 32.4760 0.0000
    endloop
  endfacet
  facet normal 0.000000 0.000000 1.000000
    outer loop
      vertex 0.0000 0.0000 70.0000
      vertex 18.7500 32.4760 70.0000
      vertex 9.7057 36.2222 70.0000
    endloop
  endfacet
  facet normal 0.382683 0.923880 0.000000
    outer loop
      vertex 18.7500 32.4760 0.0000
      vertex 9.7057 36.2222 0.0000
      vertex 9.7057 36.2222 70.0000
    endloop
  endfacet
  facet normal 0.382683 0.923880 -0.000000
    outer loop
      vertex 18.7500 32.4760 0.0000
      vertex 9.7057 36.2222 70.0000
      vertex 18.7500 32.4760 70.0000
    endloop
  endfacet
  facet normal 0.000000 0.000000 -1.000000
    outer loop
      vertex 0.0000 0.0000 0.0000
      vertex 0.0000 37.5000 0.0000
      vertex 9.7057 36.2222 0.0000
    endloop
  endfacet
  facet normal 0.000000 0.000000 1.000000
    outer loop
      vertex 0.0000 0.0000 70.0000
      vertex 9.7057 36.2222 70.0000
      vertex 0.0000 37.5000 70.0000
    endloop
  endfacet
  facet normal 0.130526 0.991445 0.000000
    outer loop
      vertex 9.7057 36.2222 0.0000
      vertex 0.0000 37.5000 0.0000
      vertex 0.0000 37.5000 70.0000
    endloop
  endfacet
  facet normal 0.130526 0.991445 -0.000000
    outer loop
      vertex 9.7057 36.2222 0.0000
      vertex 0.0000 37.5000 70.0000
      vertex 9.7057 36.2222 70.0000
    endloop
  endfacet
  facet normal 0.000000 0.000000 -1.000000
    outer loop
      vertex 0.0000 0.0000 0.0000
      vertex -9.7057 36.2222 0.0000
      vertex 0.0000 37.5000 0.0000
    endloop
  endfacet
  facet normal 0.000000 -0.000000 1.000000
    outer loop
      vertex 0.0000 0.0000 70.0000
      vertex 0.0000 37.5000 70.0000
      vertex -9.7057 36.2222 70.0000
    endloop
  endfacet
  facet normal -0.130526 0.991445 0.000000
    outer loop
      vertex 0.0000 37.5000 0.0000
      vertex -9.7057 36.2222 0.0000
      vertex -9.7057 36.2222 70.0000
    endloop
  endfacet
  facet normal -0.130526 0.991445 0.000000
    outer loop
      vertex 0.0000 37.5000 0.0000
      vertex -9.7057 36.2222 70.0000
      vertex 0.0000 37.5000 70.0000
    endloop
  endfacet
  facet normal 0.000000 0.000000 -1.000000
    outer loop
      vertex 0.0000 0.0000 0.0000
      vertex -18.7500 32.4760 0.0000
      vertex -9.7057 36.2222 0.0000
    endloop
  endfacet
  facet normal 0.000000 0.000000 1.000000
    outer loop
      vertex 0.0000 0.0000 70.0000
      vertex -9.7057 36.2222 70.0000
      vertex -18.7500 32.4760 70.0000
    endloop
  endfacet
  facet normal -0.382683 0.923880 0.000000
    outer loop
      vertex -9.7057 36.2222 0.0000
      vertex -18.7500 32.4760 0.0000
      vertex -18.7500 32.4760 70.0000
    endloop
  endfacet
  facet normal -0.382683 0.923880 0.000000
    outer loop
      vertex -9.7057 36.2222 0.0000
      vertex -18.7500 32.4760 70.0000
      vertex -9.7057 36.2222 70.0000
    endloop
  endfacet
  facet normal 0.000000 0.000000 -1.000000
    outer loop
      vertex 0.0000 0.0000 0.0000
      vertex -26.5165 26.5165 0.0000
      vertex -18.7500 32.4760 0.0000
    endloop
  endfacet
  facet normal 0.000000 0.000000 1.000000
    outer loop
      vertex 0.0000 0.0000 70.0000
      vertex -18.7500 32.4760 70.0000
      vertex -26.5165 26.5165 70.0000
    endloop
  endfacet
  facet normal -0.608761 0.793353 0.000000
    outer loop
      vertex -18.7500 32.4760 0.0000
      vertex -26.5165 26.5165 0.0000
      vertex -26.5165 26.5165 70.0000
    endloop
  endfacet
  facet normal -0.608761 0.793353 0.000000
    outer loop
      vertex -18.7500 32.4760 0.0000
      vertex -26.5165 26.5165 70.0000
      vertex -18.7500 32.4760 70.0000
    endloop
  endfacet
  facet normal 0.000000 0.000000 -1.000000
    outer loop
      vertex 0.0000 0.0000 0.0000
      vertex -32.4760 18.7500 0.0000
      vertex -26.5165 26.5165 0.0000
    endloop
  endfacet
  facet normal 0.000000 0.000000 1.000000
    outer loop
      vertex 0.0000 0.0000 70.0000
      vertex -26.5165 26.5165 70.0000
      vertex -32.4760 18.7500 70.0000
    endloop
  endfacet
  facet normal -0.793353 0.608761 0.000000
    outer loop
      vertex -26.5165 26.5165 0.0000
      vertex -32.4760 18.7500 0.0000
      vertex -32.4760 18.7500 70.0000
    endloop
  endfacet
  facet normal -0.793353 0.608761 0.000000
    outer loop
      vertex -26.5165 26.5165 0.0000
      vertex -32.4760 18.7500 70.0000
      vertex -26.5165 26.5165 70.0000
    endloop
  endfacet
  facet normal 0.000000 0.000000 -1.000000
    outer loop
      vertex 0.0000 0.0000 0.0000
      vertex -36.2222 9.7057 0.0000
      vertex -32.4760 18.7500 0.0000
    endloop
  endfacet
  facet normal 0.000000 0.000000 1.000000
    outer loop
      vertex 0.0000 0.0000 70.0000
      vertex -32.4760 18.7500 70.0000
      vertex -36.2222 9.7057 70.0000
    endloop
  endfacet
  facet normal -0.923880 0.382683 0.000000
    outer loop
      vertex -32.4760 18.7500 0.0000
      vertex -36.2222 9.7057 0.0000
      vertex -36.2222 9.7057 70.0000
    endloop
  endfacet
  facet normal -0.923880 0.382683 0.000000
    outer loop
      vertex -32.4760 18.7500 0.0000
      vertex -36.2222 9.7057 70.0000
      vertex -32.4760 18.7500 70.0000
    endloop
  endfacet
  facet normal 0.000000 0.000000 -1.000000
    outer loop
      vertex 0.0000 0.0000 0.0000
      vertex -37.5000 0.0000 0.0000
      vertex -36.2222 9.7057 0.0000
    endloop
  endfacet
  facet normal 0.000000 0.000000 1.000000
    outer loop
      vertex 0.0000 0.0000 70.0000
      vertex -36.2222 9.7057 70.0000
      vertex -37.5000 0.0000 70.0000
    endloop
  endfacet
  facet normal -0.991445 0.130526 0.000000
    outer loop
      vertex -36.2222 9.7057 0.0000
      vertex -37.5000 0.0000 0.0000
      vertex -37.5000 0.0000 70.0000
    endloop
  endfacet
  facet normal -0.991445 0.130526 0.000000
    outer loop
      vertex -36.2222 9.7057 0.0000
      vertex -37.5000 0.0000 70.0000
      vertex -36.2222 9.7057 70.0000
    endloop
  endfacet
  facet normal -0.000000 0.000000 -1.000000
    outer loop
      vertex 0.0000 0.0000 0.0000
      vertex -36.2222 -9.7057 0.0000
      vertex -37.5000 0.0000 0.0000
    endloop
  endfacet
  facet normal 0.000000 0.000000 1.000000
    outer loop
      vertex 0.0000 0.0000 70.0000
      vertex -37.5000 0.0000 70.0000
      vertex -36.2222 -9.7057 70.0000
    endloop
  endfacet
  facet normal -0.991445 -0.130526 0.000000
    outer loop
      vertex -37.5000 0.0000 0.0000
      vertex -36.2222 -9.7057 0.0000
      vertex -36.2222 -9.7057 70.0000
    endloop
  endfacet
  facet normal -0.991445 -0.130526 0.000000
    outer loop
      vertex -37.5000 0.0000 0.0000
      vertex -36.2222 -9.7057 70.0000
      vertex -37.5000 0.0000 70.0000
    endloop
  endfacet
  facet normal 0.000000 0.000000 -1.000000
    outer loop
      vertex 0.0000 0.0000 0.0000
      vertex -32.4760 -18.7500 0.0000
      vertex -36.2222 -9.7057 0.0000
    endloop
  endfacet
  facet normal 0.000000 0.000000 1.000000
    outer loop
      vertex 0.0000 0.0000 70.0000
      vertex -36.2222 -9.7057 70.0000
      vertex -32.4760 -18.7500 70.0000
    endloop
  endfacet
  facet normal -0.923880 -0.382683 0.000000
    outer loop
      vertex -36.2222 -9.7057 0.0000
      vertex -32.4760 -18.7500 0.0000
      vertex -32.4760 -18.7500 70.0000
    endloop
  endfacet
  facet normal -0.923880 -0.382683 0.000000
    outer loop
      vertex -36.2222 -9.7057 0.0000
      vertex -32.4760 -18.7500 70.0000
      vertex -36.2222 -9.7057 70.0000
    endloop
  endfacet
  facet normal 0.000000 0.000000 -1.000000
    outer loop
      vertex 0.0000 0.0000 0.0000
      vertex -26.5165 -26.5165 0.0000
      vertex -32.4760 -18.7500 0.0000
    endloop
  endfacet
  facet normal 0.000000 0.000000 1.000000
    outer loop
      vertex 0.0000 0.0000 70.0000
      vertex -32.4760 -18.7500 70.0000
      vertex -26.5165 -26.5165 70.0000
    endloop
  endfacet
  facet normal -0.793353 -0.608761 0.000000
    outer loop
      vertex -32.4760 -18.7500 0.0000
      vertex -26.5165 -26.5165 0.0000
      vertex -26.5165 -26.5165 70.0000
    endloop
  endfacet
  facet normal -0.793353 -0.608761 0.000000
    outer loop
      vertex -32.4760 -18.7500 0.0000
      vertex -26.5165 -26.5165 70.0000
      vertex -32.4760 -18.7500 70.0000
    endloop
  endfacet
  facet normal 0.000000 0.000000 -1.000000
    outer loop
      vertex 0.0000 0.0000 0.0000
      vertex -18.7500 -32.4760 0.0000
      vertex -26.5165 -26.5165 0.0000
    endloop
  endfacet
  facet normal 0.000000 0.000000 1.000000
    outer loop
      vertex 0.0000 0.0000 70.0000
      vertex -26.5165 -26.5165 70.0000
      vertex -18.7500 -32.4760 70.0000
    endloop
  endfacet
  facet normal -0.608761 -0.793353 0.000000
    outer loop
      vertex -26.5165 -26.5165 0.0000
      vertex -18.7500 -32.4760 0.0000
      vertex -18.7500 -32.4760 70.0000
    endloop
  endfacet
  facet normal -0.608761 -0.793353 0.000000
    outer loop
      vertex -26.5165 -26.5165 0.0000
      vertex -18.7500 -32.4760 70.0000
      vertex -26.5165 -26.5165 70.0000
    endloop
  endfacet
  facet normal 0.000000 0.000000 -1.000000
    outer loop
      vertex 0.0000 0.0000 0.0000
      vertex -9.7057 -36.2222 0.0000
      vertex -18.7500 -32.4760 0.0000
    endloop
  endfacet
  facet normal 0.000000 0.000000 1.000000
    outer loop
      vertex 0.0000 0.0000 70.0000
      vertex -18.7500 -32.4760 70.0000
      vertex -9.7057 -36.2222 70.0000
    endloop
  endfacet
  facet normal -0.382683 -0.923880 0.000000
    outer loop
      vertex -18.7500 -32.4760 0.0000
      vertex -9.7057 -36.2222 0.0000
      vertex -9.7057 -36.2222 70.0000
    endloop
  endfacet
  facet normal -0.382683 -0.923880 0.000000
    outer loop
      vertex -18.7500 -32.4760 0.0000
      vertex -9.7057 -36.2222 70.0000
      vertex -18.7500 -32.4760 70.0000
    endloop
  endfacet
  facet normal 0.000000 0.000000 -1.000000
    outer loop
      vertex 0.0000 0.0000 0.0000
      vertex -0.0000 -37.5000 0.0000
      vertex -9.7057 -36.2222 0.0000
    endloop
  endfacet
  facet normal 0.000000 0.000000 1.000000
    outer loop
      vertex 0.0000 0.0000 70.0000
      vertex -9.7057 -36.2222 70.0000
      vertex -0.0000 -37.5000 70.0000
    endloop
  endfacet
  facet normal -0.130526 -0.991445 0.000000
    outer loop
      vertex -9.7057 -36.2222 0.0000
      vertex -0.0000 -37.5000 0.0000
      vertex -0.0000 -37.5000 70.0000
    endloop
  endfacet
  facet normal -0.130526 -0.991445 0.000000
    outer loop
      vertex -9.7057 -36.2222 0.0000
      vertex -0.0000 -37.5000 70.0000
      vertex -9.7057 -36.2222 70.0000
    endloop
  endfacet
  facet normal 0.000000 -0.000000 -1.000000
    outer loop
      vertex 0.0000 0.0000 0.0000
      vertex 9.7057 -36.2222 0.0000
      vertex -0.0000 -37.5000 0.0000
    endloop
  endfacet
  facet normal 0.000000 0.000000 1.000000
    outer loop
      vertex 0.0000 0.0000 70.0000
      vertex -0.0000 -37.5000 70.0000
      vertex 9.7057 -36.2222 70.0000
    endloop
  endfacet
  facet normal 0.130526 -0.991445 0.000000
    outer loop
      vertex -0.0000 -37.5000 0.0000
      vertex 9.7057 -36.2222 0.0000
      vertex 9.7057 -36.2222 70.0000
    endloop
  endfacet
  facet normal 0.130526 -0.991445 0.000000
    outer loop
      vertex -0.0000 -37.5000 0.0000
      vertex 9.7057 -36.2222 70.0000
      vertex -0.0000 -37.5000 70.0000
    endloop
  endfacet
  facet normal 0.000000 0.000000 -1.000000
    outer loop
      vertex 0.0000 0.0000 0.0000
      vertex 18.7500 -32.4760 0.0000
      vertex 9.7057 -36.2222 0.0000
    endloop
  endfacet
  facet normal 0.000000 0.000000 1.000000
    outer loop
      vertex 0.0000 0.0000 70.0000
      vertex 9.7057 -36.2222 70.0000
      vertex 18.7500 -32.4760 70.0000
    endloop
  endfacet
  facet normal 0.382683 -0.923880 0.000000
    outer loop
      vertex 9.7057 -36.2222 0.0000
      vertex 18.7500 -32.4760 0.0000
      vertex 18.7500 -32.4760 70.0000
    endloop
  endfacet
  facet normal 0.382683 -0.923880 0.000000
    outer loop
      vertex 9.7057 -36.2222 0.0000
      vertex 18.7500 -32.4760 70.0000
      vertex 9.7057 -36.2222 70.0000
    endloop
  endfacet
  facet normal 0.000000 0.000000 -1.000000
    outer loop
      vertex 0.0000 0.0000 0.0000
      vertex 26.5165 -26.5165 0.0000
      vertex 18.7500 -32.4760 0.0000
    endloop
  endfacet
  facet normal 0.000000 0.000000 1.000000
    outer loop
      vertex 0.0000 0.0000 70.0000
      vertex 18.7500 -32.4760 70.0000
      vertex 26.5165 -26.5165 70.0000
    endloop
  endfacet
  facet normal 0.608761 -0.793353 0.000000
    outer loop
      vertex 18.7500 -32.4760 0.0000
      vertex 26.5165 -26.5165 0.0000
      vertex 26.5165 -26.5165 70.0000
    endloop
  endfacet
  facet normal 0.608761 -0.793353 0.000000
    outer loop
      vertex 18.7500 -32.4760 0.0000
      vertex 26.5165 -26.5165 70.0000
      vertex 18.7500 -32.4760 70.0000
    endloop
  endfacet
  facet normal 0.000000 0.000000 -1.000000
    outer loop
      vertex 0.0000 0.0000 0.0000
      vertex 32.4760 -18.7500 0.0000
      vertex 26.5165 -26.5165 0.0000
    endloop
  endfacet
  facet normal 0.000000 0.000000 1.000000
    outer loop
      vertex 0.0000 0.0000 70.0000
      vertex 26.5165 -26.5165 70.0000
      vertex 32.4760 -18.7500 70.0000
    endloop
  endfacet
  facet normal 0.793353 -0.608761 0.000000
    outer loop
      vertex 26.5165 -26.5165 0.0000
      vertex 32.4760 -18.7500 0.0000
      vertex 32.4760 -18.7500 70.0000
    endloop
  endfacet
  facet normal 0.793353 -0.608761 0.000000
    outer loop
      vertex 26.5165 -26.5165 0.0000
      vertex 32.4760 -18.7500 70.0000
      vertex 26.5165 -26.5165 70.0000
    endloop
  endfacet
  facet normal 0.000000 0.000000 -1.000000
    outer loop
      vertex 0.0000 0.0000 0.0000
      vertex 36.2222 -9.7057 0.0000
      vertex 32.4760 -18.7500 0.0000
    endloop
  endfacet
  facet normal 0.000000 0.000000 1.000000
    outer loop
      vertex 0.0000 0.0000 70.0000
      vertex 32.4760 -18.7500 70.0000
      vertex 36.2222 -9.7057 70.0000
    endloop
  endfacet
  facet normal 0.923880 -0.382683 0.000000
    outer loop
      vertex 32.4760 -18.7500 0.0000
      vertex 36.2222 -9.7057 0.0000
      vertex 36.2222 -9.7057 70.0000
    endloop
  endfacet
  facet normal 0.923880 -0.382683 0.000000
    outer loop
      vertex 32.4760 -18.7500 0.0000
      vertex 36.2222 -9.7057 70.0000
      vertex 32.4760 -18.7500 70.0000
    endloop
  endfacet
  facet normal 0.000000 0.000000 -1.000000
    outer loop
      vertex 0.0000 0.0000 0.0000
      vertex 37.5000 -0.0000 0.0000
      vertex 36.2222 -9.7057 0.0000
    endloop
  endfacet
  facet normal 0.000000 0.000000 1.000000
    outer loop
      vertex 0.0000 0.0000 70.0000
      vertex 36.2222 -9.7057 70.0000
      vertex 37.5000 -0.0000 70.0000
    endloop
  endfacet
  facet normal 0.991445 -0.130526 0.000000
    outer loop
      vertex 36.2222 -9.7057 0.0000
      vertex 37.5000 -0.0000 0.0000
      vertex 37.5000 -0.0000 70.0000
    endloop
  endfacet
  facet normal 0.991445 -0.130526 0.000000
    outer loop
      vertex 36.2222 -9.7057 0.0000
      vertex 37.5000 -0.0000 70.0000
      vertex 36.2222 -9.7057 70.0000
    endloop
  endfacet
endsolid PL_MINI_POT
