solid PL_ORNAMENT
  facet normal 0.000000 0.000000 -1.000000
    outer loop
      vertex 0.0000 0.0000 0.0000
      vertex 28.9778 7.7646 0.0000
      vertex 30.0000 0.0000 0.0000
    endloop
  endfacet
  facet normal 0.000000 0.000000 1.000000
    outer loop
      vertex 0.0000 0.0000 10.0000
      vertex 30.0000 0.0000 10.0000
      vertex 28.9778 7.7646 10.0000
    endloop
  endfacet
  facet normal 0.991445 0.130526 0.000000
    outer loop
      vertex 30.0000 0.0000 0.0000
      vertex 28.9778 7.7646 0.0000
      vertex 28.9778 7.7646 10.0000
    endloop
  endfacet
  facet normal 0.991445 0.130526 -0.000000
    outer loop
      vertex 30.0000 0.0000 0.0000
      vertex 28.9778 7.7646 10.0000
      vertex 30.0000 0.0000 10.0000
    endloop
  endfacet
  facet normal 0.000000 0.000000 -1.000000
    outer loop
      vertex 0.0000 0.0000 0.0000
      vertex 25.9808 15.0000 0.0000
      vertex 28.9778 7.7646 0.0000
    endloop
  endfacet
  facet normal 0.000000 0.000000 1.000000
    outer loop
      vertex 0.0000 0.0000 10.0000
      vertex 28.9778 7.7646 10.0000
      vertex 25.9808 15.0000 10.0000
    endloop
  endfacet
  facet normal 0.923880 0.382683 0.000000
    outer loop
      vertex 28.9778 7.7646 0.0000
      vertex 25.9808 15.0000 0.0000
      vertex 25.9808 15.0000 10.0000
    endloop
  endfacet
  facet normal 0.923880 0.382683 -0.000000
    outer loop
      vertex 28.9778 7.7646 0.0000
      vertex 25.9808 15.0000 10.0000
      vertex 28.9778 7.7646 10.0000
    endloop
  endfacet
  facet normal 0.000000 0.000000 -1.000000
    outer loop
      vertex 0.0000 0.0000 0.0000
      vertex 21.2132 21.2132 0.0000
      vertex 25.9808 15.0000 0.0000
    endloop
  endfacet
  facet normal 0.000000 0.000000 1.000000
    outer loop
      vertex 0.0000 0.0000 10.0000
      vertex 25.9808 15.0000 10.0000
      vertex 21.2132 21.2132 10.0000
    endloop
  endfacet
  facet normal 0.793353 0.608761 0.000000
    outer loop
      vertex 25.9808 15.0000 0.0000
      vertex 21.2132 21.2132 0.0000
      vertex 21.2132 21.2132 10.0000
    endloop
  endfacet
  facet normal 0.793353 0.608761 -0.000000
    outer loop
      vertex 25.9808 15.0000 0.0000
      vertex 21.2132 21.2132 10.0000
      vertex 25.9808 15.0000 10.0000
    endloop
  endfacet
  facet normal 0.000000 0.000000 -1.000000
    outer loop
      vertex 0.0000 0.0000 0.0000
      vertex 15.0000 25.9808 0.0000
      vertex 21.2132 21.2132 0.0000
    endloop
  endfacet
  facet normal 0.000000 0.000000 1.000000
    outer loop
      vertex 0.0000 0.0000 10.0000
      vertex 21.2132 21.2132 10.0000
      vertex 15.0000 25.9808 10.0000
    endloop
  endfacet
  facet normal 0.608761 0.793353 0.000000
    outer loop
      vertex 21.2132 21.2132 0.0000
      vertex 15.0000 25.9808 0.0000
      vertex 15.0000 25.9808 10.0000
    endloop
  endfacet
  facet normal 0.608761 0.793353 -0.000000
    outer loop
      vertex 21.2132 21.2132 0.0000
      vertex 15.0000 25.9808 10.0000
      vertex 21.2132 21.2132 10.0000
    endloop
  endfacet
  facet normal 0.000000 0.000000 -1.000000
    outer loop
      vertex 0.0000 0.0000 0.0000
      vertex 7.7646 28.9778 0.0000
      vertex 15.0000 25.9808 0.0000
    endloop
  endfacet
  facet normal 0.000000 0.000000 1.000000
    outer loop
      vertex 0.0000 0.0000 10.0000
      vertex 15.0000 25.9808 10.0000
      vertex 7.7646 28.9778 10.0000
    endloop
  endfacet
  facet normal 0.382683 0.923880 0.000000
    outer loop
      vertex 15.0000 25.9808 0.0000
      vertex 7.7646 28.9778 0.0000
      vertex 7.7646 28.9778 10.0000
    endloop
  endfacet
  facet normal 0.382683 0.923880 -0.000000
    outer loop
      vertex 15.0000 25.9808 0.0000
      vertex 7.7646 28.9778 10.0000
      vertex 15.0000 25.9808 10.0000
    endloop
  endfacet
  facet normal 0.000000 0.000000 -1.000000
    outer loop
      vertex 0.0000 0.0000 0.0000
      vertex 0.0000 30.0000 0.0000
      vertex 7.7646 28.9778 0.0000
    endloop
  endfacet
  facet normal 0.000000 0.000000 1.000000
    outer loop
      vertex 0.0000 0.0000 10.0000
      vertex 7.7646 28.9778 10.0000
      vertex 0.0000 30.0000 10.0000
    endloop
  endfacet
  facet normal 0.130526 0.991445 0.000000
    outer loop
      vertex 7.7646 28.9778 0.0000
      vertex 0.0000 30.0000 0.0000
      vertex 0.0000 30.0000 10.0000
    endloop
  endfacet
  facet normal 0.130526 0.991445 -0.000000
    outer loop
      vertex 7.7646 28.9778 0.0000
      vertex 0.0000 30.0000 10.0000
      vertex 7.7646 28.9778 10.0000
    endloop
  endfacet
  facet normal 0.000000 0.000000 -1.000000
    outer loop
      vertex 0.0000 0.0000 0.0000
      vertex -7.7646 28.9778 0.0000
      vertex 0.0000 30.0000 0.0000
    endloop
  endfacet
  facet normal 0.000000 -0.000000 1.000000
    outer loop
      vertex 0.0000 0.0000 10.0000
      vertex 0.0000 30.0000 10.0000
      vertex -7.7646 28.9778 10.0000
    endloop
  endfacet
  facet normal -0.130526 0.991445 0.000000
    outer loop
      vertex 0.0000 30.0000 0.0000
      vertex -7.7646 28.9778 0.0000
      vertex -7.7646 28.9778 10.0000
    endloop
  endfacet
  facet normal -0.130526 0.991445 0.000000
    outer loop
      vertex 0.0000 30.0000 0.0000
      vertex -7.7646 28.9778 10.0000
      vertex 0.0000 30.0000 10.0000
    endloop
  endfacet
  facet normal 0.000000 0.000000 -1.000000
    outer loop
      vertex 0.0000 0.0000 0.0000
      vertex -15.0000 25.9808 0.0000
      vertex -7.7646 28.9778 0.0000
    endloop
  endfacet
  facet normal 0.000000 0.000000 1.000000
    outer loop
      vertex 0.0000 0.0000 10.0000
      vertex -7.7646 28.9778 10.0000
      vertex -15.0000 25.9808 10.0000
    endloop
  endfacet
  facet normal -0.382683 0.923880 0.000000
    outer loop
      vertex -7.7646 28.9778 0.0000
      vertex -15.0000 25.9808 0.0000
      vertex -15.0000 25.9808 10.0000
    endloop
  endfacet
  facet normal -0.382683 0.923880 0.000000
    outer loop
      vertex -7.7646 28.9778 0.0000
      vertex -15.0000 25.9808 10.0000
      vertex -7.7646 28.9778 10.0000
    endloop
  endfacet
  facet normal 0.000000 0.000000 -1.000000
    outer loop
      vertex 0.0000 0.0000 0.0000
      vertex -21.2132 21.2132 0.0000
      vertex -15.0000 25.9808 0.0000
    endloop
  endfacet
  facet normal 0.000000 0.000000 1.000000
    outer loop
      vertex 0.0000 0.0000 10.0000
      vertex -15.0000 25.9808 10.0000
      vertex -21.2132 21.2132 10.0000
    endloop
  endfacet
  facet normal -0.608761 0.793353 0.000000
    outer loop
      vertex -15.0000 25.9808 0.0000
      vertex -21.2132 21.2132 0.0000
      vertex -21.2132 21.2132 10.0000
    endloop
  endfacet
  facet normal -0.608761 0.793353 0.000000
    outer loop
      vertex -15.0000 25.9808 0.0000
      vertex -21.2132 21.2132 10.0000
      vertex -15.0000 25.9808 10.0000
    endloop
  endfacet
  facet normal 0.000000 0.000000 -1.000000
    outer loop
      vertex 0.0000 0.0000 0.0000
      vertex -25.9808 15.0000 0.0000
      vertex -21.2132 21.2132 0.0000
    endloop
  endfacet
  facet normal 0.000000 0.000000 1.000000
    outer loop
      vertex 0.0000 0.0000 10.0000
      vertex -21.2132 21.2132 10.0000
      vertex -25.9808 15.0000 10.0000
    endloop
  endfacet
  facet normal -0.793353 0.608761 0.000000
    outer loop
      vertex -21.2132 21.2132 0.0000
      vertex -25.9808 15.0000 0.0000
      vertex -25.9808 15.0000 10.0000
    endloop
  endfacet
  facet normal -0.793353 0.608761 0.000000
    outer loop
      vertex -21.2132 21.2132 0.0000
      vertex -25.9808 15.0000 10.0000
      vertex -21.2132 21.2132 10.0000
    endloop
  endfacet
  facet normal 0.000000 0.000000 -1.000000
    outer loop
      vertex 0.0000 0.0000 0.0000
      vertex -28.9778 7.7646 0.0000
      vertex -25.9808 15.0000 0.0000
    endloop
  endfacet
  facet normal 0.000000 0.000000 1.000000
    outer loop
      vertex 0.0000 0.0000 10.0000
      vertex -25.9808 15.0000 10.0000
      vertex -28.9778 7.7646 10.0000
    endloop
  endfacet
  facet normal -0.923880 0.382683 0.000000
    outer loop
      vertex -25.9808 15.0000 0.0000
      vertex -28.9778 7.7646 0.0000
      vertex -28.9778 7.7646 10.0000
    endloop
  endfacet
  facet normal -0.923880 0.382683 0.000000
    outer loop
      vertex -25.9808 15.0000 0.0000
      vertex -28.9778 7.7646 10.0000
      vertex -25.9808 15.0000 10.0000
    endloop
  endfacet
  facet normal 0.000000 0.000000 -1.000000
    outer loop
      vertex 0.0000 0.0000 0.0000
      vertex -30.0000 0.0000 0.0000
      vertex -28.9778 7.7646 0.0000
    endloop
  endfacet
  facet normal 0.000000 0.000000 1.000000
    outer loop
      vertex 0.0000 0.0000 10.0000
      vertex -28.9778 7.7646 10.0000
      vertex -30.0000 0.0000 10.0000
    endloop
  endfacet
  facet normal -0.991445 0.130526 0.000000
    outer loop
      vertex -28.9778 7.7646 0.0000
      vertex -30.0000 0.0000 0.0000
      vertex -30.0000 0.0000 10.0000
    endloop
  endfacet
  facet normal -0.991445 0.130526 0.000000
    outer loop
      vertex -28.9778 7.7646 0.0000
      vertex -30.0000 0.0000 10.0000
      vertex -28.9778 7.7646 10.0000
    endloop
  endfacet
  facet normal -0.000000 0.000000 -1.000000
    outer loop
      vertex 0.0000 0.0000 0.0000
      vertex -28.9778 -7.7646 0.0000
      vertex -30.0000 0.0000 0.0000
    endloop
  endfacet
  facet normal 0.000000 0.000000 1.000000
    outer loop
      vertex 0.0000 0.0000 10.0000
      vertex -30.0000 0.0000 10.0000
      vertex -28.9778 -7.7646 10.0000
    endloop
  endfacet
  facet normal -0.991445 -0.130526 0.000000
    outer loop
      vertex -30.0000 0.0000 0.0000
      vertex -28.9778 -7.7646 0.0000
      vertex -28.9778 -7.7646 10.0000
    endloop
  endfacet
  facet normal -0.991445 -0.130526 0.000000
    outer loop
      vertex -30.0000 0.0000 0.0000
      vertex -28.9778 -7.7646 10.0000
      vertex -30.0000 0.0000 10.0000
    endloop
  endfacet
  facet normal 0.000000 0.000000 -1.000000
    outer loop
      vertex 0.0000 0.0000 0.0000
      vertex -25.9808 -15.0000 0.0000
      vertex -28.9778 -7.7646 0.0000
    endloop
  endfacet
  facet normal 0.000000 0.000000 1.000000
    outer loop
      vertex 0.0000 0.0000 10.0000
      vertex -28.9778 -7.7646 10.0000
      vertex -25.9808 -15.0000 10.0000
    endloop
  endfacet
  facet normal -0.923880 -0.382683 0.000000
    outer loop
      vertex -28.9778 -7.7646 0.0000
      vertex -25.9808 -15.0000 0.0000
      vertex -25.9808 -15.0000 10.0000
    endloop
  endfacet
  facet normal -0.923880 -0.382683 0.000000
    outer loop
      vertex -28.9778 -7.7646 0.0000
      vertex -25.9808 -15.0000 10.0000
      vertex -28.9778 -7.7646 10.0000
    endloop
  endfacet
  facet normal 0.000000 0.000000 -1.000000
    outer loop
      vertex 0.0000 0.0000 0.0000
      vertex -21.2132 -21.2132 0.0000
      vertex -25.9808 -15.0000 0.0000
    endloop
  endfacet
  facet normal 0.000000 0.000000 1.000000
    outer loop
      vertex 0.0000 0.0000 10.0000
      vertex -25.9808 -15.0000 10.0000
      vertex -21.2132 -21.2132 10.0000
    endloop
  endfacet
  facet normal -0.793353 -0.608761 0.000000
    outer loop
      vertex -25.9808 -15.0000 0.0000
      vertex -21.2132 -21.2132 0.0000
      vertex -21.2132 -21.2132 10.0000
    endloop
  endfacet
  facet normal -0.793353 -0.608761 0.000000
    outer loop
      vertex -25.9808 -15.0000 0.0000
      vertex -21.2132 -21.2132 10.0000
      vertex -25.9808 -15.0000 10.0000
    endloop
  endfacet
  facet normal 0.000000 0.000000 -1.000000
    outer loop
      vertex 0.0000 0.0000 0.0000
      vertex -15.0000 -25.9808 0.0000
      vertex -21.2132 -21.2132 0.0000
    endloop
  endfacet
  facet normal 0.000000 0.000000 1.000000
    outer loop
      vertex 0.0000 0.0000 10.0000
      vertex -21.2132 -21.2132 10.0000
      vertex -15.0000 -25.9808 10.0000
    endloop
  endfacet
  facet normal -0.608761 -0.793353 0.000000
    outer loop
      vertex -21.2132 -21.2132 0.0000
      vertex -15.0000 -25.9808 0.0000
      vertex -15.0000 -25.9808 10.0000
    endloop
  endfacet
  facet normal -0.608761 -0.793353 0.000000
    outer loop
      vertex -21.2132 -21.2132 0.0000
      vertex -15.0000 -25.9808 10.0000
      vertex -21.2132 -21.2132 10.0000
    endloop
  endfacet
  facet normal 0.000000 0.000000 -1.000000
    outer loop
      vertex 0.0000 0.0000 0.0000
      vertex -7.7646 -28.9778 0.0000
      vertex -15.0000 -25.9808 0.0000
    endloop
  endfacet
  facet normal 0.000000 0.000000 1.000000
    outer loop
      vertex 0.0000 0.0000 10.0000
      vertex -15.0000 -25.9808 10.0000
      vertex -7.7646 -28.9778 10.0000
    endloop
  endfacet
  facet normal -0.382683 -0.923880 0.000000
    outer loop
      vertex -15.0000 -25.9808 0.0000
      vertex -7.7646 -28.9778 0.0000
      vertex -7.7646 -28.9778 10.0000
    endloop
  endfacet
  facet normal -0.382683 -0.923880 0.000000
    outer loop
      vertex -15.0000 -25.9808 0.0000
      vertex -7.7646 -28.9778 10.0000
      vertex -15.0000 -25.9808 10.0000
    endloop
  endfacet
  facet normal 0.000000 0.000000 -1.000000
    outer loop
      vertex 0.0000 0.0000 0.0000
      vertex -0.0000 -30.0000 0.0000
      vertex -7.7646 -28.9778 0.0000
    endloop
  endfacet
  facet normal 0.000000 0.000000 1.000000
    outer loop
      vertex 0.0000 0.0000 10.0000
      vertex -7.7646 -28.9778 10.0000
      vertex -0.0000 -30.0000 10.0000
    endloop
  endfacet
  facet normal -0.130526 -0.991445 0.000000
    outer loop
      vertex -7.7646 -28.9778 0.0000
      vertex -0.0000 -30.0000 0.0000
      vertex -0.0000 -30.0000 10.0000
    endloop
  endfacet
  facet normal -0.130526 -0.991445 0.000000
    outer loop
      vertex -7.7646 -28.9778 0.0000
      vertex -0.0000 -30.0000 10.0000
      vertex -7.7646 -28.9778 10.0000
    endloop
  endfacet
  facet normal 0.000000 -0.000000 -1.000000
    outer loop
      vertex 0.0000 0.0000 0.0000
      vertex 7.7646 -28.9778 0.0000
      vertex -0.0000 -30.0000 0.0000
    endloop
  endfacet
  facet normal 0.000000 0.000000 1.000000
    outer loop
      vertex 0.0000 0.0000 10.0000
      vertex -0.0000 -30.0000 10.0000
      vertex 7.7646 -28.9778 10.0000
    endloop
  endfacet
  facet normal 0.130526 -0.991445 0.000000
    outer loop
      vertex -0.0000 -30.0000 0.0000
      vertex 7.7646 -28.9778 0.0000
      vertex 7.7646 -28.9778 10.0000
    endloop
  endfacet
  facet normal 0.130526 -0.991445 0.000000
    outer loop
      vertex -0.0000 -30.0000 0.0000
      vertex 7.7646 -28.9778 10.0000
      vertex -0.0000 -30.0000 10.0000
    endloop
  endfacet
  facet normal 0.000000 0.000000 -1.000000
    outer loop
      vertex 0.0000 0.0000 0.0000
      vertex 15.0000 -25.9808 0.0000
      vertex 7.7646 -28.9778 0.0000
    endloop
  endfacet
  facet normal 0.000000 0.000000 1.000000
    outer loop
      vertex 0.0000 0.0000 10.0000
      vertex 7.7646 -28.9778 10.0000
      vertex 15.0000 -25.9808 10.0000
    endloop
  endfacet
  facet normal 0.382683 -0.923880 0.000000
    outer loop
      vertex 7.7646 -28.9778 0.0000
      vertex 15.0000 -25.9808 0.0000
      vertex 15.0000 -25.9808 10.0000
    endloop
  endfacet
  facet normal 0.382683 -0.923880 0.000000
    outer loop
      vertex 7.7646 -28.9778 0.0000
      vertex 15.0000 -25.9808 10.0000
      vertex 7.7646 -28.9778 10.0000
    endloop
  endfacet
  facet normal 0.000000 0.000000 -1.000000
    outer loop
      vertex 0.0000 0.0000 0.0000
      vertex 21.2132 -21.2132 0.0000
      vertex 15.0000 -25.9808 0.0000
    endloop
  endfacet
  facet normal 0.000000 0.000000 1.000000
    outer loop
      vertex 0.0000 0.0000 10.0000
      vertex 15.0000 -25.9808 10.0000
      vertex 21.2132 -21.2132 10.0000
    endloop
  endfacet
  facet normal 0.608761 -0.793353 0.000000
    outer loop
      vertex 15.0000 -25.9808 0.0000
      vertex 21.2132 -21.2132 0.0000
      vertex 21.2132 -21.2132 10.0000
    endloop
  endfacet
  facet normal 0.608761 -0.793353 0.000000
    outer loop
      vertex 15.0000 -25.9808 0.0000
      vertex 21.2132 -21.2132 10.0000
      vertex 15.0000 -25.9808 10.0000
    endloop
  endfacet
  facet normal 0.000000 0.000000 -1.000000
    outer loop
      vertex 0.0000 0.0000 0.0000
      vertex 25.9808 -15.0000 0.0000
      vertex 21.2132 -21.2132 0.0000
    endloop
  endfacet
  facet normal 0.000000 0.000000 1.000000
    outer loop
      vertex 0.0000 0.0000 10.0000
      vertex 21.2132 -21.2132 10.0000
      vertex 25.9808 -15.0000 10.0000
    endloop
  endfacet
  facet normal 0.793353 -0.608761 0.000000
    outer loop
      vertex 21.2132 -21.2132 0.0000
      vertex 25.9808 -15.0000 0.0000
      vertex 25.9808 -15.0000 10.0000
    endloop
  endfacet
  facet normal 0.793353 -0.608761 0.000000
    outer loop
      vertex 21.2132 -21.2132 0.0000
      vertex 25.9808 -15.0000 10.0000
      vertex 21.2132 -21.2132 10.0000
    endloop
  endfacet
  facet normal 0.000000 0.000000 -1.000000
    outer loop
      vertex 0.0000 0.0000 0.0000
      vertex 28.9778 -7.7646 0.0000
      vertex 25.9808 -15.0000 0.0000
    endloop
  endfacet
  facet normal 0.000000 0.000000 1.000000
    outer loop
      vertex 0.0000 0.0000 10.0000
      vertex 25.9808 -15.0000 10.0000
      vertex 28.9778 -7.7646 10.0000
    endloop
  endfacet
  facet normal 0.923880 -0.382683 0.000000
    outer loop
      vertex 25.9808 -15.0000 0.0000
      vertex 28.9778 -7.7646 0.0000
      vertex 28.9778 -7.7646 10.0000
    endloop
  endfacet
  facet normal 0.923880 -0.382683 0.000000
    outer loop
      vertex 25.9808 -15.0000 0.0000
      vertex 28.9778 -7.7646 10.0000
      vertex 25.9808 -15.0000 10.0000
    endloop
  endfacet
  facet normal 0.000000 0.000000 -1.000000
    outer loop
      vertex 0.0000 0.0000 0.0000
      vertex 30.0000 -0.0000 0.0000
      vertex 28.9778 -7.7646 0.0000
    endloop
  endfacet
  facet normal 0.000000 0.000000 1.000000
    outer loop
      vertex 0.0000 0.0000 10.0000
      vertex 28.9778 -7.7646 10.0000
      vertex 30.0000 -0.0000 10.0000
    endloop
  endfacet
  facet normal 0.991445 -0.130526 0.000000
    outer loop
      vertex 28.9778 -7.7646 0.0000
      vertex 30.0000 -0.0000 0.0000
      vertex 30.0000 -0.0000 10.0000
    endloop
  endfacet
  facet normal 0.991445 -0.130526 0.000000
    outer loop
      vertex 28.9778 -7.7646 0.0000
      vertex 30.0000 -0.0000 10.0000
      vertex 28.9778 -7.7646 10.0000
    endloop
  endfacet
  facet normal 0.000000 0.000000 1.000000
    outer loop
      vertex 26.0000 -4.0000 10.0000
      vertex 34.0000 -4.0000 10.0000
      vertex 34.0000 4.0000 10.0000
    endloop
  endfacet
  facet normal 0.000000 0.000000 1.000000
    outer loop
      vertex 26.0000 -4.0000 10.0000
      vertex 34.0000 4.0000 10.0000
      vertex 26.0000 4.0000 10.0000
    endloop
  endfacet
  facet normal 0.000000 0.000000 -1.000000
    outer loop
      vertex 26.0000 -4.0000 22.0000
      vertex 34.0000 4.0000 22.0000
      vertex 34.0000 -4.0000 22.0000
    endloop
  endfacet
  facet normal 0.000000 0.000000 -1.000000
    outer loop
      vertex 26.0000 -4.0000 22.0000
      vertex 26.0000 4.0000 22.0000
      vertex 34.0000 4.0000 22.0000
    endloop
  endfacet
  facet normal 0.000000 1.000000 0.000000
    outer loop
      vertex 26.0000 -4.0000 10.0000
      vertex 26.0000 -4.0000 22.0000
      vertex 34.0000 -4.0000 22.0000
    endloop
  endfacet
  facet normal 0.000000 1.000000 0.000000
    outer loop
      vertex 26.0000 -4.0000 10.0000
      vertex 34.0000 -4.0000 22.0000
      vertex 34.0000 -4.0000 10.0000
    endloop
  endfacet
  facet normal 0.000000 -1.000000 0.000000
    outer loop
      vertex 26.0000 4.0000 10.0000
      vertex 34.0000 4.0000 10.0000
      vertex 34.0000 4.0000 22.0000
    endloop
  endfacet
  facet normal 0.000000 -1.000000 0.000000
    outer loop
      vertex 26.0000 4.0000 10.0000
      vertex 34.0000 4.0000 22.0000
      vertex 26.0000 4.0000 22.0000
    endloop
  endfacet
  facet normal 1.000000 0.000000 0.000000
    outer loop
      vertex 26.0000 -4.0000 10.0000
      vertex 26.0000 4.0000 10.0000
      vertex 26.0000 4.0000 22.0000
    endloop
  endfacet
  facet normal 1.000000 0.000000 0.000000
    outer loop
      vertex 26.0000 -4.0000 10.0000
      vertex 26.0000 4.0000 22.0000
      vertex 26.0000 -4.0000 22.0000
    endloop
  endfacet
  facet normal -1.000000 0.000000 0.000000
    outer loop
      vertex 34.0000 -4.0000 10.0000
      vertex 34.0000 -4.0000 22.0000
      vertex 34.0000 4.0000 22.0000
    endloop
  endfacet
  facet normal -1.000000 0.000000 0.000000
    outer loop
      vertex 34.0000 -4.0000 10.0000
      vertex 34.0000 4.0000 22.0000
      vertex 34.0000 4.0000 10.0000
    endloop
  endfacet
endsolid PL_ORNAMENT
