solid PL_BAG_TAG
  facet normal 0.000000 0.000000 1.000000
    outer loop
      vertex 0.0000 0.0000 0.0000
      vertex 55.0000 0.0000 0.0000
      vertex 55.0000 35.0000 0.0000
    endloop
  endfacet
  facet normal 0.000000 0.000000 1.000000
    outer loop
      vertex 0.0000 0.0000 0.0000
      vertex 55.0000 35.0000 0.0000
      vertex 0.0000 35.0000 0.0000
    endloop
  endfacet
  facet normal 0.000000 0.000000 -1.000000
    outer loop
      vertex 0.0000 0.0000 3.0000
      vertex 55.0000 35.0000 3.0000
      vertex 55.0000 0.0000 3.0000
    endloop
  endfacet
  facet normal 0.000000 0.000000 -1.000000
    outer loop
      vertex 0.0000 0.0000 3.0000
      vertex 0.0000 35.0000 3.0000
      vertex 55.0000 35.0000 3.0000
    endloop
  endfacet
  facet normal 0.000000 1.000000 0.000000
    outer loop
      vertex 0.0000 0.0000 0.0000
      vertex 0.0000 0.0000 3.0000
      vertex 55.0000 0.0000 3.0000
    endloop
  endfacet
  facet normal 0.000000 1.000000 0.000000
    outer loop
      vertex 0.0000 0.0000 0.0000
      vertex 55.0000 0.0000 3.0000
      vertex 55.0000 0.0000 0.0000
    endloop
  endfacet
  facet normal 0.000000 -1.000000 0.000000
    outer loop
      vertex 0.0000 35.0000 0.0000
      vertex 55.0000 35.0000 0.0000
      vertex 55.0000 35.0000 3.0000
    endloop
  endfacet
  facet normal 0.000000 -1.000000 0.000000
    outer loop
      vertex 0.0000 35.0000 0.0000
      vertex 55.0000 35.0000 3.0000
      vertex 0.0000 35.0000 3.0000
    endloop
  endfacet
  facet normal 1.000000 0.000000 0.000000
    outer loop
      vertex 0.0000 0.0000 0.0000
      vertex 0.0000 35.0000 0.0000
      vertex 0.0000 35.0000 3.0000
    endloop
  endfacet
  facet normal 1.000000 0.000000 0.000000
    outer loop
      vertex 0.0000 0.0000 0.0000
      vertex 0.0000 35.0000 3.0000
      vertex 0.0000 0.0000 3.0000
    endloop
  endfacet
  facet normal -1.000000 0.000000 0.000000
    outer loop
      vertex 55.0000 0.0000 0.0000
      vertex 55.0000 0.0000 3.0000
      vertex 55.0000 35.0000 3.0000
    endloop
  endfacet
  facet normal -1.000000 0.000000 0.000000
    outer loop
      vertex 55.0000 0.0000 0.0000
      vertex 55.0000 35.0000 3.0000
      vertex 55.0000 35.0000 0.0000
    endloop
  endfacet
endsolid PL_BAG_TAG
