solid PL_CLICKER
  facet normal 0.000000 0.000000 -1.000000
    outer loop
      vertex 0.0000 0.0000 0.0000
      vertex 16.9037 4.5293 0.0000
      vertex 17.5000 0.0000 0.0000
    endloop
  endfacet
  facet normal 0.000000 0.000000 1.000000
    outer loop
      vertex 0.0000 0.0000 18.0000
      vertex 17.5000 0.0000 18.0000
      vertex 16.9037 4.5293 18.0000
    endloop
  endfacet
  facet normal 0.991445 0.130526 0.000000
    outer loop
      vertex 17.5000 0.0000 0.0000
      vertex 16.9037 4.5293 0.0000
      vertex 16.9037 4.5293 18.0000
    endloop
  endfacet
  facet normal 0.991445 0.130526 -0.000000
    outer loop
      vertex 17.5000 0.0000 0.0000
      vertex 16.9037 4.5293 18.0000
      vertex 17.5000 0.0000 18.0000
    endloop
  endfacet
  facet normal 0.000000 0.000000 -1.000000
    outer loop
      vertex 0.0000 0.0000 0.0000
      vertex 15.1554 8.7500 0.0000
      vertex 16.9037 4.5293 0.0000
    endloop
  endfacet
  facet normal 0.000000 0.000000 1.000000
    outer loop
      vertex 0.0000 0.0000 18.0000
      vertex 16.9037 4.5293 18.0000
      vertex 15.1554 8.7500 18.0000
    endloop
  endfacet
  facet normal 0.923880 0.382683 0.000000
    outer loop
      vertex 16.9037 4.5293 0.0000
      vertex 15.1554 8.7500 0.0000
      vertex 15.1554 8.7500 18.0000
    endloop
  endfacet
  facet normal 0.923880 0.382683 -0.000000
    outer loop
      vertex 16.9037 4.5293 0.0000
      vertex 15.1554 8.7500 18.0000
      vertex 16.9037 4.5293 18.0000
    endloop
  endfacet
  facet normal 0.000000 0.000000 -1.000000
    outer loop
      vertex 0.0000 0.0000 0.0000
      vertex 12.3744 12.3744 0.0000
      vertex 15.1554 8.7500 0.0000
    endloop
  endfacet
  facet normal 0.000000 0.000000 1.000000
    outer loop
      vertex 0.0000 0.0000 18.0000
      vertex 15.1554 8.7500 18.0000
      vertex 12.3744 12.3744 18.0000
    endloop
  endfacet
  facet normal 0.793353 0.608761 0.000000
    outer loop
      vertex 15.1554 8.7500 0.0000
      vertex 12.3744 12.3744 0.0000
      vertex 12.3744 12.3744 18.0000
    endloop
  endfacet
  facet normal 0.793353 0.608761 -0.000000
    outer loop
      vertex 15.1554 8.7500 0.0000
      vertex 12.3744 12.3744 18.0000
      vertex 15.1554 8.7500 18.0000
    endloop
  endfacet
  facet normal 0.000000 0.000000 -1.000000
    outer loop
      vertex 0.0000 0.0000 0.0000
      vertex 8.7500 15.1554 0.0000
      vertex 12.3744 12.3744 0.0000
    endloop
  endfacet
  facet normal 0.000000 0.000000 1.000000
    outer loop
      vertex 0.0000 0.0000 18.0000
      vertex 12.3744 12.3744 18.0000
      vertex 8.7500 15.1554 18.0000
    endloop
  endfacet
  facet normal 0.608761 0.793353 0.000000
    outer loop
      vertex 12.3744 12.3744 0.0000
      vertex 8.7500 15.1554 0.0000
      vertex 8.7500 15.1554 18.0000
    endloop
  endfacet
  facet normal 0.608761 0.793353 -0.000000
    outer loop
      vertex 12.3744 12.3744 0.0000
      vertex 8.7500 15.1554 18.0000
      vertex 12.3744 12.3744 18.0000
    endloop
  endfacet
  facet normal 0.000000 0.000000 -1.000000
    outer loop
      vertex 0.0000 0.0000 0.0000
      vertex 4.5293 16.9037 0.0000
      vertex 8.7500 15.1554 0.0000
    endloop
  endfacet
  facet normal 0.000000 0.000000 1.000000
    outer loop
      vertex 0.0000 0.0000 18.0000
      vertex 8.7500 15.1554 18.0000
      vertex 4.5293 16.9037 18.0000
    endloop
  endfacet
  facet normal 0.382683 0.923880 0.000000
    outer loop
      vertex 8.7500 15.1554 0.0000
      vertex 4.5293 16.9037 0.0000
      vertex 4.5293 16.9037 18.0000
    endloop
  endfacet
  facet normal 0.382683 0.923880 -0.000000
    outer loop
      vertex 8.7500 15.1554 0.0000
      vertex 4.5293 16.9037 18.0000
      vertex 8.7500 15.1554 18.0000
    endloop
  endfacet
  facet normal 0.000000 0.000000 -1.000000
    outer loop
      vertex 0.0000 0.0000 0.0000
      vertex 0.0000 17.5000 0.0000
      vertex 4.5293 16.9037 0.0000
    endloop
  endfacet
  facet normal 0.000000 0.000000 1.000000
    outer loop
      vertex 0.0000 0.0000 18.0000
      vertex 4.5293 16.9037 18.0000
      vertex 0.0000 17.5000 18.0000
    endloop
  endfacet
  facet normal 0.130526 0.991445 0.000000
    outer loop
      vertex 4.5293 16.9037 0.0000
      vertex 0.0000 17.5000 0.0000
      vertex 0.0000 17.5000 18.0000
    endloop
  endfacet
  facet normal 0.130526 0.991445 -0.000000
    outer loop
      vertex 4.5293 16.9037 0.0000
      vertex 0.0000 17.5000 18.0000
      vertex 4.5293 16.9037 18.0000
    endloop
  endfacet
  facet normal 0.000000 0.000000 -1.000000
    outer loop
      vertex 0.0000 0.0000 0.0000
      vertex -4.5293 16.9037 0.0000
      vertex 0.0000 17.5000 0.0000
    endloop
  endfacet
  facet normal 0.000000 -0.000000 1.000000
    outer loop
      vertex 0.0000 0.0000 18.0000
      vertex 0.0000 17.5000 18.0000
      vertex -4.5293 16.9037 18.0000
    endloop
  endfacet
  facet normal -0.130526 0.991445 0.000000
    outer loop
      vertex 0.0000 17.5000 0.0000
      vertex -4.5293 16.9037 0.0000
      vertex -4.5293 16.9037 18.0000
    endloop
  endfacet
  facet normal -0.130526 0.991445 0.000000
    outer loop
      vertex 0.0000 17.5000 0.0000
      vertex -4.5293 16.9037 18.0000
      vertex 0.0000 17.5000 18.0000
    endloop
  endfacet
  facet normal 0.000000 0.000000 -1.000000
    outer loop
      vertex 0.0000 0.0000 0.0000
      vertex -8.7500 15.1554 0.0000
      vertex -4.5293 16.9037 0.0000
    endloop
  endfacet
  facet normal 0.000000 0.000000 1.000000
    outer loop
      vertex 0.0000 0.0000 18.0000
      vertex -4.5293 16.9037 18.0000
      vertex -8.7500 15.1554 18.0000
    endloop
  endfacet
  facet normal -0.382683 0.923880 0.000000
    outer loop
      vertex -4.5293 16.9037 0.0000
      vertex -8.7500 15.1554 0.0000
      vertex -8.7500 15.1554 18.0000
    endloop
  endfacet
  facet normal -0.382683 0.923880 0.000000
    outer loop
      vertex -4.5293 16.9037 0.0000
      vertex -8.7500 15.1554 18.0000
      vertex -4.5293 16.9037 18.0000
    endloop
  endfacet
  facet normal 0.000000 0.000000 -1.000000
    outer loop
      vertex 0.0000 0.0000 0.0000
      vertex -12.3744 12.3744 0.0000
      vertex -8.7500 15.1554 0.0000
    endloop
  endfacet
  facet normal 0.000000 0.000000 1.000000
    outer loop
      vertex 0.0000 0.0000 18.0000
      vertex -8.7500 15.1554 18.0000
      vertex -12.3744 12.3744 18.0000
    endloop
  endfacet
  facet normal -0.608761 0.793353 0.000000
    outer loop
      vertex -8.7500 15.1554 0.0000
      vertex -12.3744 12.3744 0.0000
      vertex -12.3744 12.3744 18.0000
    endloop
  endfacet
  facet normal -0.608761 0.793353 0.000000
    outer loop
      vertex -8.7500 15.1554 0.0000
      vertex -12.3744 12.3744 18.0000
      vertex -8.7500 15.1554 18.0000
    endloop
  endfacet
  facet normal 0.000000 0.000000 -1.000000
    outer loop
      vertex 0.0000 0.0000 0.0000
      vertex -15.1554 8.7500 0.0000
      vertex -12.3744 12.3744 0.0000
    endloop
  endfacet
  facet normal 0.000000 0.000000 1.000000
    outer loop
      vertex 0.0000 0.0000 18.0000
      vertex -12.3744 12.3744 18.0000
      vertex -15.1554 8.7500 18.0000
    endloop
  endfacet
  facet normal -0.793353 0.608761 0.000000
    outer loop
      vertex -12.3744 12.3744 0.0000
      vertex -15.1554 8.7500 0.0000
      vertex -15.1554 8.7500 18.0000
    endloop
  endfacet
  facet normal -0.793353 0.608761 0.000000
    outer loop
      vertex -12.3744 12.3744 0.0000
      vertex -15.1554 8.7500 18.0000
      vertex -12.3744 12.3744 18.0000
    endloop
  endfacet
  facet normal 0.000000 0.000000 -1.000000
    outer loop
      vertex 0.0000 0.0000 0.0000
      vertex -16.9037 4.5293 0.0000
      vertex -15.1554 8.7500 0.0000
    endloop
  endfacet
  facet normal 0.000000 0.000000 1.000000
    outer loop
      vertex 0.0000 0.0000 18.0000
      vertex -15.1554 8.7500 18.0000
      vertex -16.9037 4.5293 18.0000
    endloop
  endfacet
  facet normal -0.923880 0.382683 0.000000
    outer loop
      vertex -15.1554 8.7500 0.0000
      vertex -16.9037 4.5293 0.0000
      vertex -16.9037 4.5293 18.0000
    endloop
  endfacet
  facet normal -0.923880 0.382683 0.000000
    outer loop
      vertex -15.1554 8.7500 0.0000
      vertex -16.9037 4.5293 18.0000
      vertex -15.1554 8.7500 18.0000
    endloop
  endfacet
  facet normal 0.000000 0.000000 -1.000000
    outer loop
      vertex 0.0000 0.0000 0.0000
      vertex -17.5000 0.0000 0.0000
      vertex -16.9037 4.5293 0.0000
    endloop
  endfacet
  facet normal 0.000000 0.000000 1.000000
    outer loop
      vertex 0.0000 0.0000 18.0000
      vertex -16.9037 4.5293 18.0000
      vertex -17.5000 0.0000 18.0000
    endloop
  endfacet
  facet normal -0.991445 0.130526 0.000000
    outer loop
      vertex -16.9037 4.5293 0.0000
      vertex -17.5000 0.0000 0.0000
      vertex -17.5000 0.0000 18.0000
    endloop
  endfacet
  facet normal -0.991445 0.130526 0.000000
    outer loop
      vertex -16.9037 4.5293 0.0000
      vertex -17.5000 0.0000 18.0000
      vertex -16.9037 4.5293 18.0000
    endloop
  endfacet
  facet normal -0.000000 0.000000 -1.000000
    outer loop
      vertex 0.0000 0.0000 0.0000
      vertex -16.9037 -4.5293 0.0000
      vertex -17.5000 0.0000 0.0000
    endloop
  endfacet
  facet normal 0.000000 0.000000 1.000000
    outer loop
      vertex 0.0000 0.0000 18.0000
      vertex -17.5000 0.0000 18.0000
      vertex -16.9037 -4.5293 18.0000
    endloop
  endfacet
  facet normal -0.991445 -0.130526 0.000000
    outer loop
      vertex -17.5000 0.0000 0.0000
      vertex -16.9037 -4.5293 0.0000
      vertex -16.9037 -4.5293 18.0000
    endloop
  endfacet
  facet normal -0.991445 -0.130526 0.000000
    outer loop
      vertex -17.5000 0.0000 0.0000
      vertex -16.9037 -4.5293 18.0000
      vertex -17.5000 0.0000 18.0000
    endloop
  endfacet
  facet normal 0.000000 0.000000 -1.000000
    outer loop
      vertex 0.0000 0.0000 0.0000
      vertex -15.1554 -8.7500 0.0000
      vertex -16.9037 -4.5293 0.0000
    endloop
  endfacet
  facet normal 0.000000 0.000000 1.000000
    outer loop
      vertex 0.0000 0.0000 18.0000
      vertex -16.9037 -4.5293 18.0000
      vertex -15.1554 -8.7500 18.0000
    endloop
  endfacet
  facet normal -0.923880 -0.382683 0.000000
    outer loop
      vertex -16.9037 -4.5293 0.0000
      vertex -15.1554 -8.7500 0.0000
      vertex -15.1554 -8.7500 18.0000
    endloop
  endfacet
  facet normal -0.923880 -0.382683 0.000000
    outer loop
      vertex -16.9037 -4.5293 0.0000
      vertex -15.1554 -8.7500 18.0000
      vertex -16.9037 -4.5293 18.0000
    endloop
  endfacet
  facet normal 0.000000 0.000000 -1.000000
    outer loop
      vertex 0.0000 0.0000 0.0000
      vertex -12.3744 -12.3744 0.0000
      vertex -15.1554 -8.7500 0.0000
    endloop
  endfacet
  facet normal 0.000000 0.000000 1.000000
    outer loop
      vertex 0.0000 0.0000 18.0000
      vertex -15.1554 -8.7500 18.0000
      vertex -12.3744 -12.3744 18.0000
    endloop
  endfacet
  facet normal -0.793353 -0.608761 0.000000
    outer loop
      vertex -15.1554 -8.7500 0.0000
      vertex -12.3744 -12.3744 0.0000
      vertex -12.3744 -12.3744 18.0000
    endloop
  endfacet
  facet normal -0.793353 -0.608761 0.000000
    outer loop
      vertex -15.1554 -8.7500 0.0000
      vertex -12.3744 -12.3744 18.0000
      vertex -15.1554 -8.7500 18.0000
    endloop
  endfacet
  facet normal 0.000000 0.000000 -1.000000
    outer loop
      vertex 0.0000 0.0000 0.0000
      vertex -8.7500 -15.1554 0.0000
      vertex -12.3744 -12.3744 0.0000
    endloop
  endfacet
  facet normal 0.000000 0.000000 1.000000
    outer loop
      vertex 0.0000 0.0000 18.0000
      vertex -12.3744 -12.3744 18.0000
      vertex -8.7500 -15.1554 18.0000
    endloop
  endfacet
  facet normal -0.608761 -0.793353 0.000000
    outer loop
      vertex -12.3744 -12.3744 0.0000
      vertex -8.7500 -15.1554 0.0000
      vertex -8.7500 -15.1554 18.0000
    endloop
  endfacet
  facet normal -0.608761 -0.793353 0.000000
    outer loop
      vertex -12.3744 -12.3744 0.0000
      vertex -8.7500 -15.1554 18.0000
      vertex -12.3744 -12.3744 18.0000
    endloop
  endfacet
  facet normal 0.000000 0.000000 -1.000000
    outer loop
      vertex 0.0000 0.0000 0.0000
      vertex -4.5293 -16.9037 0.0000
      vertex -8.7500 -15.1554 0.0000
    endloop
  endfacet
  facet normal 0.000000 0.000000 1.000000
    outer loop
      vertex 0.0000 0.0000 18.0000
      vertex -8.7500 -15.1554 18.0000
      vertex -4.5293 -16.9037 18.0000
    endloop
  endfacet
  facet normal -0.382683 -0.923880 0.000000
    outer loop
      vertex -8.7500 -15.1554 0.0000
      vertex -4.5293 -16.9037 0.0000
      vertex -4.5293 -16.9037 18.0000
    endloop
  endfacet
  facet normal -0.382683 -0.923880 0.000000
    outer loop
      vertex -8.7500 -15.1554 0.0000
      vertex -4.5293 -16.9037 18.0000
      vertex -8.7500 -15.1554 18.0000
    endloop
  endfacet
  facet normal 0.000000 0.000000 -1.000000
    outer loop
      vertex 0.0000 0.0000 0.0000
      vertex -0.0000 -17.5000 0.0000
      vertex -4.5293 -16.9037 0.0000
    endloop
  endfacet
  facet normal 0.000000 0.000000 1.000000
    outer loop
      vertex 0.0000 0.0000 18.0000
      vertex -4.5293 -16.9037 18.0000
      vertex -0.0000 -17.5000 18.0000
    endloop
  endfacet
  facet normal -0.130526 -0.991445 0.000000
    outer loop
      vertex -4.5293 -16.9037 0.0000
      vertex -0.0000 -17.5000 0.0000
      vertex -0.0000 -17.5000 18.0000
    endloop
  endfacet
  facet normal -0.130526 -0.991445 0.000000
    outer loop
      vertex -4.5293 -16.9037 0.0000
      vertex -0.0000 -17.5000 18.0000
      vertex -4.5293 -16.9037 18.0000
    endloop
  endfacet
  facet normal 0.000000 -0.000000 -1.000000
    outer loop
      vertex 0.0000 0.0000 0.0000
      vertex 4.5293 -16.9037 0.0000
      vertex -0.0000 -17.5000 0.0000
    endloop
  endfacet
  facet normal 0.000000 0.000000 1.000000
    outer loop
      vertex 0.0000 0.0000 18.0000
      vertex -0.0000 -17.5000 18.0000
      vertex 4.5293 -16.9037 18.0000
    endloop
  endfacet
  facet normal 0.130526 -0.991445 0.000000
    outer loop
      vertex -0.0000 -17.5000 0.0000
      vertex 4.5293 -16.9037 0.0000
      vertex 4.5293 -16.9037 18.0000
    endloop
  endfacet
  facet normal 0.130526 -0.991445 0.000000
    outer loop
      vertex -0.0000 -17.5000 0.0000
      vertex 4.5293 -16.9037 18.0000
      vertex -0.0000 -17.5000 18.0000
    endloop
  endfacet
  facet normal 0.000000 0.000000 -1.000000
    outer loop
      vertex 0.0000 0.0000 0.0000
      vertex 8.7500 -15.1554 0.0000
      vertex 4.5293 -16.9037 0.0000
    endloop
  endfacet
  facet normal 0.000000 0.000000 1.000000
    outer loop
      vertex 0.0000 0.0000 18.0000
      vertex 4.5293 -16.9037 18.0000
      vertex 8.7500 -15.1554 18.0000
    endloop
  endfacet
  facet normal 0.382683 -0.923880 0.000000
    outer loop
      vertex 4.5293 -16.9037 0.0000
      vertex 8.7500 -15.1554 0.0000
      vertex 8.7500 -15.1554 18.0000
    endloop
  endfacet
  facet normal 0.382683 -0.923880 0.000000
    outer loop
      vertex 4.5293 -16.9037 0.0000
      vertex 8.7500 -15.1554 18.0000
      vertex 4.5293 -16.9037 18.0000
    endloop
  endfacet
  facet normal 0.000000 0.000000 -1.000000
    outer loop
      vertex 0.0000 0.0000 0.0000
      vertex 12.3744 -12.3744 0.0000
      vertex 8.7500 -15.1554 0.0000
    endloop
  endfacet
  facet normal 0.000000 0.000000 1.000000
    outer loop
      vertex 0.0000 0.0000 18.0000
      vertex 8.7500 -15.1554 18.0000
      vertex 12.3744 -12.3744 18.0000
    endloop
  endfacet
  facet normal 0.608761 -0.793353 0.000000
    outer loop
      vertex 8.7500 -15.1554 0.0000
      vertex 12.3744 -12.3744 0.0000
      vertex 12.3744 -12.3744 18.0000
    endloop
  endfacet
  facet normal 0.608761 -0.793353 0.000000
    outer loop
      vertex 8.7500 -15.1554 0.0000
      vertex 12.3744 -12.3744 18.0000
      vertex 8.7500 -15.1554 18.0000
    endloop
  endfacet
  facet normal 0.000000 0.000000 -1.000000
    outer loop
      vertex 0.0000 0.0000 0.0000
      vertex 15.1554 -8.7500 0.0000
      vertex 12.3744 -12.3744 0.0000
    endloop
  endfacet
  facet normal 0.000000 0.000000 1.000000
    outer loop
      vertex 0.0000 0.0000 18.0000
      vertex 12.3744 -12.3744 18.0000
      vertex 15.1554 -8.7500 18.0000
    endloop
  endfacet
  facet normal 0.793353 -0.608761 0.000000
    outer loop
      vertex 12.3744 -12.3744 0.0000
      vertex 15.1554 -8.7500 0.0000
      vertex 15.1554 -8.7500 18.0000
    endloop
  endfacet
  facet normal 0.793353 -0.608761 0.000000
    outer loop
      vertex 12.3744 -12.3744 0.0000
      vertex 15.1554 -8.7500 18.0000
      vertex 12.3744 -12.3744 18.0000
    endloop
  endfacet
  facet normal 0.000000 0.000000 -1.000000
    outer loop
      vertex 0.0000 0.0000 0.0000
      vertex 16.9037 -4.5293 0.0000
      vertex 15.1554 -8.7500 0.0000
    endloop
  endfacet
  facet normal 0.000000 0.000000 1.000000
    outer loop
      vertex 0.0000 0.0000 18.0000
      vertex 15.1554 -8.7500 18.0000
      vertex 16.9037 -4.5293 18.0000
    endloop
  endfacet
  facet normal 0.923880 -0.382683 0.000000
    outer loop
      vertex 15.1554 -8.7500 0.0000
      vertex 16.9037 -4.5293 0.0000
      vertex 16.9037 -4.5293 18.0000
    endloop
  endfacet
  facet normal 0.923880 -0.382683 0.000000
    outer loop
      vertex 15.1554 -8.7500 0.0000
      vertex 16.9037 -4.5293 18.0000
      vertex 15.1554 -8.7500 18.0000
    endloop
  endfacet
  facet normal 0.000000 0.000000 -1.000000
    outer loop
      vertex 0.0000 0.0000 0.0000
      vertex 17.5000 -0.0000 0.0000
      vertex 16.9037 -4.5293 0.0000
    endloop
  endfacet
  facet normal 0.000000 0.000000 1.000000
    outer loop
      vertex 0.0000 0.0000 18.0000
      vertex 16.9037 -4.5293 18.0000
      vertex 17.5000 -0.0000 18.0000
    endloop
  endfacet
  facet normal 0.991445 -0.130526 0.000000
    outer loop
      vertex 16.9037 -4.5293 0.0000
      vertex 17.5000 -0.0000 0.0000
      vertex 17.5000 -0.0000 18.0000
    endloop
  endfacet
  facet normal 0.991445 -0.130526 0.000000
    outer loop
      vertex 16.9037 -4.5293 0.0000
      vertex 17.5000 -0.0000 18.0000
      vertex 16.9037 -4.5293 18.0000
    endloop
  endfacet
endsolid PL_CLICKER
