solid PL_DESK_ARC
  facet normal 0.000000 0.000000 1.000000
    outer loop
      vertex 0.0000 0.0000 0.0000
      vertex 180.0000 0.0000 0.0000
      vertex 180.0000 40.0000 0.0000
    endloop
  endfacet
  facet normal 0.000000 0.000000 1.000000
    outer loop
      vertex 0.0000 0.0000 0.0000
      vertex 180.0000 40.0000 0.0000
      vertex 0.0000 40.0000 0.0000
    endloop
  endfacet
  facet normal 0.000000 0.000000 -1.000000
    outer loop
      vertex 0.0000 0.0000 12.0000
      vertex 180.0000 40.0000 12.0000
      vertex 180.0000 0.0000 12.0000
    endloop
  endfacet
  facet normal 0.000000 0.000000 -1.000000
    outer loop
      vertex 0.0000 0.0000 12.0000
      vertex 0.0000 40.0000 12.0000
      vertex 180.0000 40.0000 12.0000
    endloop
  endfacet
  facet normal 0.000000 1.000000 0.000000
    outer loop
      vertex 0.0000 0.0000 0.0000
      vertex 0.0000 0.0000 12.0000
      vertex 180.0000 0.0000 12.0000
    endloop
  endfacet
  facet normal 0.000000 1.000000 0.000000
    outer loop
      vertex 0.0000 0.0000 0.0000
      vertex 180.0000 0.0000 12.0000
      vertex 180.0000 0.0000 0.0000
    endloop
  endfacet
  facet normal 0.000000 -1.000000 0.000000
    outer loop
      vertex 0.0000 40.0000 0.0000
      vertex 180.0000 40.0000 0.0000
      vertex 180.0000 40.0000 12.0000
    endloop
  endfacet
  facet normal 0.000000 -1.000000 0.000000
    outer loop
      vertex 0.0000 40.0000 0.0000
      vertex 180.0000 40.0000 12.0000
      vertex 0.0000 40.0000 12.0000
    endloop
  endfacet
  facet normal 1.000000 0.000000 0.000000
    outer loop
      vertex 0.0000 0.0000 0.0000
      vertex 0.0000 40.0000 0.0000
      vertex 0.0000 40.0000 12.0000
    endloop
  endfacet
  facet normal 1.000000 0.000000 0.000000
    outer loop
      vertex 0.0000 0.0000 0.0000
      vertex 0.0000 40.0000 12.0000
      vertex 0.0000 0.0000 12.0000
    endloop
  endfacet
  facet normal -1.000000 0.000000 0.000000
    outer loop
      vertex 180.0000 0.0000 0.0000
      vertex 180.0000 0.0000 12.0000
      vertex 180.0000 40.0000 12.0000
    endloop
  endfacet
  facet normal -1.000000 0.000000 0.000000
    outer loop
      vertex 180.0000 0.0000 0.0000
      vertex 180.0000 40.0000 12.0000
      vertex 180.0000 40.0000 0.0000
    endloop
  endfacet
  facet normal 0.000000 0.000000 1.000000
    outer loop
      vertex 0.0000 0.0000 0.0000
      vertex 18.0000 0.0000 0.0000
      vertex 18.0000 40.0000 0.0000
    endloop
  endfacet
  facet normal 0.000000 0.000000 1.000000
    outer loop
      vertex 0.0000 0.0000 0.0000
      vertex 18.0000 40.0000 0.0000
      vertex 0.0000 40.0000 0.0000
    endloop
  endfacet
  facet normal 0.000000 0.000000 -1.000000
    outer loop
      vertex 0.0000 0.0000 120.0000
      vertex 18.0000 40.0000 120.0000
      vertex 18.0000 0.0000 120.0000
    endloop
  endfacet
  facet normal 0.000000 0.000000 -1.000000
    outer loop
      vertex 0.0000 0.0000 120.0000
      vertex 0.0000 40.0000 120.0000
      vertex 18.0000 40.0000 120.0000
    endloop
  endfacet
  facet normal 0.000000 1.000000 0.000000
    outer loop
      vertex 0.0000 0.0000 0.0000
      vertex 0.0000 0.0000 120.0000
      vertex 18.0000 0.0000 120.0000
    endloop
  endfacet
  facet normal 0.000000 1.000000 0.000000
    outer loop
      vertex 0.0000 0.0000 0.0000
      vertex 18.0000 0.0000 120.0000
      vertex 18.0000 0.0000 0.0000
    endloop
  endfacet
  facet normal 0.000000 -1.000000 0.000000
    outer loop
      vertex 0.0000 40.0000 0.0000
      vertex 18.0000 40.0000 0.0000
      vertex 18.0000 40.0000 120.0000
    endloop
  endfacet
  facet normal 0.000000 -1.000000 0.000000
    outer loop
      vertex 0.0000 40.0000 0.0000
      vertex 18.0000 40.0000 120.0000
      vertex 0.0000 40.0000 120.0000
    endloop
  endfacet
  facet normal 1.000000 0.000000 0.000000
    outer loop
      vertex 0.0000 0.0000 0.0000
      vertex 0.0000 40.0000 0.0000
      vertex 0.0000 40.0000 120.0000
    endloop
  endfacet
  facet normal 1.000000 0.000000 0.000000
    outer loop
      vertex 0.0000 0.0000 0.0000
      vertex 0.0000 40.0000 120.0000
      vertex 0.0000 0.0000 120.0000
    endloop
  endfacet
  facet normal -1.000000 0.000000 0.000000
    outer loop
      vertex 18.0000 0.0000 0.0000
      vertex 18.0000 0.0000 120.0000
      vertex 18.0000 40.0000 120.0000
    endloop
  endfacet
  facet normal -1.000000 0.000000 0.000000
    outer loop
      vertex 18.0000 0.0000 0.0000
      vertex 18.0000 40.0000 120.0000
      vertex 18.0000 40.0000 0.0000
    endloop
  endfacet
  facet normal 0.000000 0.000000 1.000000
    outer loop
      vertex 162.0000 0.0000 0.0000
      vertex 180.0000 0.0000 0.0000
      vertex 180.0000 40.0000 0.0000
    endloop
  endfacet
  facet normal 0.000000 0.000000 1.000000
    outer loop
      vertex 162.0000 0.0000 0.0000
      vertex 180.0000 40.0000 0.0000
      vertex 162.0000 40.0000 0.0000
    endloop
  endfacet
  facet normal 0.000000 0.000000 -1.000000
    outer loop
      vertex 162.0000 0.0000 120.0000
      vertex 180.0000 40.0000 120.0000
      vertex 180.0000 0.0000 120.0000
    endloop
  endfacet
  facet normal 0.000000 0.000000 -1.000000
    outer loop
      vertex 162.0000 0.0000 120.0000
      vertex 162.0000 40.0000 120.0000
      vertex 180.0000 40.0000 120.0000
    endloop
  endfacet
  facet normal 0.000000 1.000000 0.000000
    outer loop
      vertex 162.0000 0.0000 0.0000
      vertex 162.0000 0.0000 120.0000
      vertex 180.0000 0.0000 120.0000
    endloop
  endfacet
  facet normal 0.000000 1.000000 0.000000
    outer loop
      vertex 162.0000 0.0000 0.0000
      vertex 180.0000 0.0000 120.0000
      vertex 180.0000 0.0000 0.0000
    endloop
  endfacet
  facet normal 0.000000 -1.000000 0.000000
    outer loop
      vertex 162.0000 40.0000 0.0000
      vertex 180.0000 40.0000 0.0000
      vertex 180.0000 40.0000 120.0000
    endloop
  endfacet
  facet normal 0.000000 -1.000000 0.000000
    outer loop
      vertex 162.0000 40.0000 0.0000
      vertex 180.0000 40.0000 120.0000
      vertex 162.0000 40.0000 120.0000
    endloop
  endfacet
  facet normal 1.000000 0.000000 0.000000
    outer loop
      vertex 162.0000 0.0000 0.0000
      vertex 162.0000 40.0000 0.0000
      vertex 162.0000 40.0000 120.0000
    endloop
  endfacet
  facet normal 1.000000 0.000000 0.000000
    outer loop
      vertex 162.0000 0.0000 0.0000
      vertex 162.0000 40.0000 120.0000
      vertex 162.0000 0.0000 120.0000
    endloop
  endfacet
  facet normal -1.000000 0.000000 0.000000
    outer loop
      vertex 180.0000 0.0000 0.0000
      vertex 180.0000 0.0000 120.0000
      vertex 180.0000 40.0000 120.0000
    endloop
  endfacet
  facet normal -1.000000 0.000000 0.000000
    outer loop
      vertex 180.0000 0.0000 0.0000
      vertex 180.0000 40.0000 120.0000
      vertex 180.0000 40.0000 0.0000
    endloop
  endfacet
endsolid PL_DESK_ARC
