solid PL_FLEX_COIL
  facet normal 0.000000 0.000000 -1.000000
    outer loop
      vertex 0.0000 0.0000 0.0000
      vertex 33.8074 9.0587 0.0000
      vertex 35.0000 0.0000 0.0000
    endloop
  endfacet
  facet normal 0.000000 0.000000 1.000000
    outer loop
      vertex 0.0000 0.0000 45.0000
      vertex 35.0000 0.0000 45.0000
      vertex 33.8074 9.0587 45.0000
    endloop
  endfacet
  facet normal 0.991445 0.130526 0.000000
    outer loop
      vertex 35.0000 0.0000 0.0000
      vertex 33.8074 9.0587 0.0000
      vertex 33.8074 9.0587 45.0000
    endloop
  endfacet
  facet normal 0.991445 0.130526 -0.000000
    outer loop
      vertex 35.0000 0.0000 0.0000
      vertex 33.8074 9.0587 45.0000
      vertex 35.0000 0.0000 45.0000
    endloop
  endfacet
  facet normal 0.000000 0.000000 -1.000000
    outer loop
      vertex 0.0000 0.0000 0.0000
      vertex 30.3109 17.5000 0.0000
      vertex 33.8074 9.0587 0.0000
    endloop
  endfacet
  facet normal 0.000000 0.000000 1.000000
    outer loop
      vertex 0.0000 0.0000 45.0000
      vertex 33.8074 9.0587 45.0000
      vertex 30.3109 17.5000 45.0000
    endloop
  endfacet
  facet normal 0.923880 0.382683 0.000000
    outer loop
      vertex 33.8074 9.0587 0.0000
      vertex 30.3109 17.5000 0.0000
      vertex 30.3109 17.5000 45.0000
    endloop
  endfacet
  facet normal 0.923880 0.382683 -0.000000
    outer loop
      vertex 33.8074 9.0587 0.0000
      vertex 30.3109 17.5000 45.0000
      vertex 33.8074 9.0587 45.0000
    endloop
  endfacet
  facet normal 0.000000 0.000000 -1.000000
    outer loop
      vertex 0.0000 0.0000 0.0000
      vertex 24.7487 24.7487 0.0000
      vertex 30.3109 17.5000 0.0000
    endloop
  endfacet
  facet normal 0.000000 0.000000 1.000000
    outer loop
      vertex 0.0000 0.0000 45.0000
      vertex 30.3109 17.5000 45.0000
      vertex 24.7487 24.7487 45.0000
    endloop
  endfacet
  facet normal 0.793353 0.608761 0.000000
    outer loop
      vertex 30.3109 17.5000 0.0000
      vertex 24.7487 24.7487 0.0000
      vertex 24.7487 24.7487 45.0000
    endloop
  endfacet
  facet normal 0.793353 0.608761 -0.000000
    outer loop
      vertex 30.3109 17.5000 0.0000
      vertex 24.7487 24.7487 45.0000
      vertex 30.3109 17.5000 45.0000
    endloop
  endfacet
  facet normal 0.000000 0.000000 -1.000000
    outer loop
      vertex 0.0000 0.0000 0.0000
      vertex 17.5000 30.3109 0.0000
      vertex 24.7487 24.7487 0.0000
    endloop
  endfacet
  facet normal 0.000000 0.000000 1.000000
    outer loop
      vertex 0.0000 0.0000 45.0000
      vertex 24.7487 24.7487 45.0000
      vertex 17.5000 30.3109 45.0000
    endloop
  endfacet
  facet normal 0.608761 0.793353 0.000000
    outer loop
      vertex 24.7487 24.7487 0.0000
      vertex 17.5000 30.3109 0.0000
      vertex 17.5000 30.3109 45.0000
    endloop
  endfacet
  facet normal 0.608761 0.793353 -0.000000
    outer loop
      vertex 24.7487 24.7487 0.0000
      vertex 17.5000 30.3109 45.0000
      vertex 24.7487 24.7487 45.0000
    endloop
  endfacet
  facet normal 0.000000 0.000000 -1.000000
    outer loop
      vertex 0.0000 0.0000 0.0000
      vertex 9.0587 33.8074 0.0000
      vertex 17.5000 30.3109 0.0000
    endloop
  endfacet
  facet normal 0.000000 0.000000 1.000000
    outer loop
      vertex 0.0000 0.0000 45.0000
      vertex 17.5000 30.3109 45.0000
      vertex 9.0587 33.8074 45.0000
    endloop
  endfacet
  facet normal 0.382683 0.923880 0.000000
    outer loop
      vertex 17.5000 30.3109 0.0000
      vertex 9.0587 33.8074 0.0000
      vertex 9.0587 33.8074 45.0000
    endloop
  endfacet
  facet normal 0.382683 0.923880 -0.000000
    outer loop
      vertex 17.5000 30.3109 0.0000
      vertex 9.0587 33.8074 45.0000
      vertex 17.5000 30.3109 45.0000
    endloop
  endfacet
  facet normal 0.000000 0.000000 -1.000000
    outer loop
      vertex 0.0000 0.0000 0.0000
      vertex 0.0000 35.0000 0.0000
      vertex 9.0587 33.8074 0.0000
    endloop
  endfacet
  facet normal 0.000000 0.000000 1.000000
    outer loop
      vertex 0.0000 0.0000 45.0000
      vertex 9.0587 33.8074 45.0000
      vertex 0.0000 35.0000 45.0000
    endloop
  endfacet
  facet normal 0.130526 0.991445 0.000000
    outer loop
      vertex 9.0587 33.8074 0.0000
      vertex 0.0000 35.0000 0.0000
      vertex 0.0000 35.0000 45.0000
    endloop
  endfacet
  facet normal 0.130526 0.991445 -0.000000
    outer loop
      vertex 9.0587 33.8074 0.0000
      vertex 0.0000 35.0000 45.0000
      vertex 9.0587 33.8074 45.0000
    endloop
  endfacet
  facet normal 0.000000 0.000000 -1.000000
    outer loop
      vertex 0.0000 0.0000 0.0000
      vertex -9.0587 33.8074 0.0000
      vertex 0.0000 35.0000 0.0000
    endloop
  endfacet
  facet normal 0.000000 -0.000000 1.000000
    outer loop
      vertex 0.0000 0.0000 45.0000
      vertex 0.0000 35.0000 45.0000
      vertex -9.0587 33.8074 45.0000
    endloop
  endfacet
  facet normal -0.130526 0.991445 0.000000
    outer loop
      vertex 0.0000 35.0000 0.0000
      vertex -9.0587 33.8074 0.0000
      vertex -9.0587 33.8074 45.0000
    endloop
  endfacet
  facet normal -0.130526 0.991445 0.000000
    outer loop
      vertex 0.0000 35.0000 0.0000
      vertex -9.0587 33.8074 45.0000
      vertex 0.0000 35.0000 45.0000
    endloop
  endfacet
  facet normal 0.000000 0.000000 -1.000000
    outer loop
      vertex 0.0000 0.0000 0.0000
      vertex -17.5000 30.3109 0.0000
      vertex -9.0587 33.8074 0.0000
    endloop
  endfacet
  facet normal 0.000000 0.000000 1.000000
    outer loop
      vertex 0.0000 0.0000 45.0000
      vertex -9.0587 33.8074 45.0000
      vertex -17.5000 30.3109 45.0000
    endloop
  endfacet
  facet normal -0.382683 0.923880 0.000000
    outer loop
      vertex -9.0587 33.8074 0.0000
      vertex -17.5000 30.3109 0.0000
      vertex -17.5000 30.3109 45.0000
    endloop
  endfacet
  facet normal -0.382683 0.923880 0.000000
    outer loop
      vertex -9.0587 33.8074 0.0000
      vertex -17.5000 30.3109 45.0000
      vertex -9.0587 33.8074 45.0000
    endloop
  endfacet
  facet normal 0.000000 0.000000 -1.000000
    outer loop
      vertex 0.0000 0.0000 0.0000
      vertex -24.7487 24.7487 0.0000
      vertex -17.5000 30.3109 0.0000
    endloop
  endfacet
  facet normal 0.000000 0.000000 1.000000
    outer loop
      vertex 0.0000 0.0000 45.0000
      vertex -17.5000 30.3109 45.0000
      vertex -24.7487 24.7487 45.0000
    endloop
  endfacet
  facet normal -0.608761 0.793353 0.000000
    outer loop
      vertex -17.5000 30.3109 0.0000
      vertex -24.7487 24.7487 0.0000
      vertex -24.7487 24.7487 45.0000
    endloop
  endfacet
  facet normal -0.608761 0.793353 0.000000
    outer loop
      vertex -17.5000 30.3109 0.0000
      vertex -24.7487 24.7487 45.0000
      vertex -17.5000 30.3109 45.0000
    endloop
  endfacet
  facet normal 0.000000 0.000000 -1.000000
    outer loop
      vertex 0.0000 0.0000 0.0000
      vertex -30.3109 17.5000 0.0000
      vertex -24.7487 24.7487 0.0000
    endloop
  endfacet
  facet normal 0.000000 0.000000 1.000000
    outer loop
      vertex 0.0000 0.0000 45.0000
      vertex -24.7487 24.7487 45.0000
      vertex -30.3109 17.5000 45.0000
    endloop
  endfacet
  facet normal -0.793353 0.608761 0.000000
    outer loop
      vertex -24.7487 24.7487 0.0000
      vertex -30.3109 17.5000 0.0000
      vertex -30.3109 17.5000 45.0000
    endloop
  endfacet
  facet normal -0.793353 0.608761 0.000000
    outer loop
      vertex -24.7487 24.7487 0.0000
      vertex -30.3109 17.5000 45.0000
      vertex -24.7487 24.7487 45.0000
    endloop
  endfacet
  facet normal 0.000000 0.000000 -1.000000
    outer loop
      vertex 0.0000 0.0000 0.0000
      vertex -33.8074 9.0587 0.0000
      vertex -30.3109 17.5000 0.0000
    endloop
  endfacet
  facet normal 0.000000 0.000000 1.000000
    outer loop
      vertex 0.0000 0.0000 45.0000
      vertex -30.3109 17.5000 45.0000
      vertex -33.8074 9.0587 45.0000
    endloop
  endfacet
  facet normal -0.923880 0.382683 0.000000
    outer loop
      vertex -30.3109 17.5000 0.0000
      vertex -33.8074 9.0587 0.0000
      vertex -33.8074 9.0587 45.0000
    endloop
  endfacet
  facet normal -0.923880 0.382683 0.000000
    outer loop
      vertex -30.3109 17.5000 0.0000
      vertex -33.8074 9.0587 45.0000
      vertex -30.3109 17.5000 45.0000
    endloop
  endfacet
  facet normal 0.000000 0.000000 -1.000000
    outer loop
      vertex 0.0000 0.0000 0.0000
      vertex -35.0000 0.0000 0.0000
      vertex -33.8074 9.0587 0.0000
    endloop
  endfacet
  facet normal 0.000000 0.000000 1.000000
    outer loop
      vertex 0.0000 0.0000 45.0000
      vertex -33.8074 9.0587 45.0000
      vertex -35.0000 0.0000 45.0000
    endloop
  endfacet
  facet normal -0.991445 0.130526 0.000000
    outer loop
      vertex -33.8074 9.0587 0.0000
      vertex -35.0000 0.0000 0.0000
      vertex -35.0000 0.0000 45.0000
    endloop
  endfacet
  facet normal -0.991445 0.130526 0.000000
    outer loop
      vertex -33.8074 9.0587 0.0000
      vertex -35.0000 0.0000 45.0000
      vertex -33.8074 9.0587 45.0000
    endloop
  endfacet
  facet normal -0.000000 0.000000 -1.000000
    outer loop
      vertex 0.0000 0.0000 0.0000
      vertex -33.8074 -9.0587 0.0000
      vertex -35.0000 0.0000 0.0000
    endloop
  endfacet
  facet normal 0.000000 0.000000 1.000000
    outer loop
      vertex 0.0000 0.0000 45.0000
      vertex -35.0000 0.0000 45.0000
      vertex -33.8074 -9.0587 45.0000
    endloop
  endfacet
  facet normal -0.991445 -0.130526 0.000000
    outer loop
      vertex -35.0000 0.0000 0.0000
      vertex -33.8074 -9.0587 0.0000
      vertex -33.8074 -9.0587 45.0000
    endloop
  endfacet
  facet normal -0.991445 -0.130526 0.000000
    outer loop
      vertex -35.0000 0.0000 0.0000
      vertex -33.8074 -9.0587 45.0000
      vertex -35.0000 0.0000 45.0000
    endloop
  endfacet
  facet normal 0.000000 0.000000 -1.000000
    outer loop
      vertex 0.0000 0.0000 0.0000
      vertex -30.3109 -17.5000 0.0000
      vertex -33.8074 -9.0587 0.0000
    endloop
  endfacet
  facet normal 0.000000 0.000000 1.000000
    outer loop
      vertex 0.0000 0.0000 45.0000
      vertex -33.8074 -9.0587 45.0000
      vertex -30.3109 -17.5000 45.0000
    endloop
  endfacet
  facet normal -0.923880 -0.382683 0.000000
    outer loop
      vertex -33.8074 -9.0587 0.0000
      vertex -30.3109 -17.5000 0.0000
      vertex -30.3109 -17.5000 45.0000
    endloop
  endfacet
  facet normal -0.923880 -0.382683 0.000000
    outer loop
      vertex -33.8074 -9.0587 0.0000
      vertex -30.3109 -17.5000 45.0000
      vertex -33.8074 -9.0587 45.0000
    endloop
  endfacet
  facet normal 0.000000 0.000000 -1.000000
    outer loop
      vertex 0.0000 0.0000 0.0000
      vertex -24.7487 -24.7487 0.0000
      vertex -30.3109 -17.5000 0.0000
    endloop
  endfacet
  facet normal 0.000000 0.000000 1.000000
    outer loop
      vertex 0.0000 0.0000 45.0000
      vertex -30.3109 -17.5000 45.0000
      vertex -24.7487 -24.7487 45.0000
    endloop
  endfacet
  facet normal -0.793353 -0.608761 0.000000
    outer loop
      vertex -30.3109 -17.5000 0.0000
      vertex -24.7487 -24.7487 0.0000
      vertex -24.7487 -24.7487 45.0000
    endloop
  endfacet
  facet normal -0.793353 -0.608761 0.000000
    outer loop
      vertex -30.3109 -17.5000 0.0000
      vertex -24.7487 -24.7487 45.0000
      vertex -30.3109 -17.5000 45.0000
    endloop
  endfacet
  facet normal 0.000000 0.000000 -1.000000
    outer loop
      vertex 0.0000 0.0000 0.0000
      vertex -17.5000 -30.3109 0.0000
      vertex -24.7487 -24.7487 0.0000
    endloop
  endfacet
  facet normal 0.000000 0.000000 1.000000
    outer loop
      vertex 0.0000 0.0000 45.0000
      vertex -24.7487 -24.7487 45.0000
      vertex -17.5000 -30.3109 45.0000
    endloop
  endfacet
  facet normal -0.608761 -0.793353 0.000000
    outer loop
      vertex -24.7487 -24.7487 0.0000
      vertex -17.5000 -30.3109 0.0000
      vertex -17.5000 -30.3109 45.0000
    endloop
  endfacet
  facet normal -0.608761 -0.793353 0.000000
    outer loop
      vertex -24.7487 -24.7487 0.0000
      vertex -17.5000 -30.3109 45.0000
      vertex -24.7487 -24.7487 45.0000
    endloop
  endfacet
  facet normal 0.000000 0.000000 -1.000000
    outer loop
      vertex 0.0000 0.0000 0.0000
      vertex -9.0587 -33.8074 0.0000
      vertex -17.5000 -30.3109 0.0000
    endloop
  endfacet
  facet normal 0.000000 0.000000 1.000000
    outer loop
      vertex 0.0000 0.0000 45.0000
      vertex -17.5000 -30.3109 45.0000
      vertex -9.0587 -33.8074 45.0000
    endloop
  endfacet
  facet normal -0.382683 -0.923880 0.000000
    outer loop
      vertex -17.5000 -30.3109 0.0000
      vertex -9.0587 -33.8074 0.0000
      vertex -9.0587 -33.8074 45.0000
    endloop
  endfacet
  facet normal -0.382683 -0.923880 0.000000
    outer loop
      vertex -17.5000 -30.3109 0.0000
      vertex -9.0587 -33.8074 45.0000
      vertex -17.5000 -30.3109 45.0000
    endloop
  endfacet
  facet normal 0.000000 0.000000 -1.000000
    outer loop
      vertex 0.0000 0.0000 0.0000
      vertex -0.0000 -35.0000 0.0000
      vertex -9.0587 -33.8074 0.0000
    endloop
  endfacet
  facet normal 0.000000 0.000000 1.000000
    outer loop
      vertex 0.0000 0.0000 45.0000
      vertex -9.0587 -33.8074 45.0000
      vertex -0.0000 -35.0000 45.0000
    endloop
  endfacet
  facet normal -0.130526 -0.991445 0.000000
    outer loop
      vertex -9.0587 -33.8074 0.0000
      vertex -0.0000 -35.0000 0.0000
      vertex -0.0000 -35.0000 45.0000
    endloop
  endfacet
  facet normal -0.130526 -0.991445 0.000000
    outer loop
      vertex -9.0587 -33.8074 0.0000
      vertex -0.0000 -35.0000 45.0000
      vertex -9.0587 -33.8074 45.0000
    endloop
  endfacet
  facet normal 0.000000 -0.000000 -1.000000
    outer loop
      vertex 0.0000 0.0000 0.0000
      vertex 9.0587 -33.8074 0.0000
      vertex -0.0000 -35.0000 0.0000
    endloop
  endfacet
  facet normal 0.000000 0.000000 1.000000
    outer loop
      vertex 0.0000 0.0000 45.0000
      vertex -0.0000 -35.0000 45.0000
      vertex 9.0587 -33.8074 45.0000
    endloop
  endfacet
  facet normal 0.130526 -0.991445 0.000000
    outer loop
      vertex -0.0000 -35.0000 0.0000
      vertex 9.0587 -33.8074 0.0000
      vertex 9.0587 -33.8074 45.0000
    endloop
  endfacet
  facet normal 0.130526 -0.991445 0.000000
    outer loop
      vertex -0.0000 -35.0000 0.0000
      vertex 9.0587 -33.8074 45.0000
      vertex -0.0000 -35.0000 45.0000
    endloop
  endfacet
  facet normal 0.000000 0.000000 -1.000000
    outer loop
      vertex 0.0000 0.0000 0.0000
      vertex 17.5000 -30.3109 0.0000
      vertex 9.0587 -33.8074 0.0000
    endloop
  endfacet
  facet normal 0.000000 0.000000 1.000000
    outer loop
      vertex 0.0000 0.0000 45.0000
      vertex 9.0587 -33.8074 45.0000
      vertex 17.5000 -30.3109 45.0000
    endloop
  endfacet
  facet normal 0.382683 -0.923880 0.000000
    outer loop
      vertex 9.0587 -33.8074 0.0000
      vertex 17.5000 -30.3109 0.0000
      vertex 17.5000 -30.3109 45.0000
    endloop
  endfacet
  facet normal 0.382683 -0.923880 0.000000
    outer loop
      vertex 9.0587 -33.8074 0.0000
      vertex 17.5000 -30.3109 45.0000
      vertex 9.0587 -33.8074 45.0000
    endloop
  endfacet
  facet normal 0.000000 0.000000 -1.000000
    outer loop
      vertex 0.0000 0.0000 0.0000
      vertex 24.7487 -24.7487 0.0000
      vertex 17.5000 -30.3109 0.0000
    endloop
  endfacet
  facet normal 0.000000 0.000000 1.000000
    outer loop
      vertex 0.0000 0.0000 45.0000
      vertex 17.5000 -30.3109 45.0000
      vertex 24.7487 -24.7487 45.0000
    endloop
  endfacet
  facet normal 0.608761 -0.793353 0.000000
    outer loop
      vertex 17.5000 -30.3109 0.0000
      vertex 24.7487 -24.7487 0.0000
      vertex 24.7487 -24.7487 45.0000
    endloop
  endfacet
  facet normal 0.608761 -0.793353 0.000000
    outer loop
      vertex 17.5000 -30.3109 0.0000
      vertex 24.7487 -24.7487 45.0000
      vertex 17.5000 -30.3109 45.0000
    endloop
  endfacet
  facet normal 0.000000 0.000000 -1.000000
    outer loop
      vertex 0.0000 0.0000 0.0000
      vertex 30.3109 -17.5000 0.0000
      vertex 24.7487 -24.7487 0.0000
    endloop
  endfacet
  facet normal 0.000000 0.000000 1.000000
    outer loop
      vertex 0.0000 0.0000 45.0000
      vertex 24.7487 -24.7487 45.0000
      vertex 30.3109 -17.5000 45.0000
    endloop
  endfacet
  facet normal 0.793353 -0.608761 0.000000
    outer loop
      vertex 24.7487 -24.7487 0.0000
      vertex 30.3109 -17.5000 0.0000
      vertex 30.3109 -17.5000 45.0000
    endloop
  endfacet
  facet normal 0.793353 -0.608761 0.000000
    outer loop
      vertex 24.7487 -24.7487 0.0000
      vertex 30.3109 -17.5000 45.0000
      vertex 24.7487 -24.7487 45.0000
    endloop
  endfacet
  facet normal 0.000000 0.000000 -1.000000
    outer loop
      vertex 0.0000 0.0000 0.0000
      vertex 33.8074 -9.0587 0.0000
      vertex 30.3109 -17.5000 0.0000
    endloop
  endfacet
  facet normal 0.000000 0.000000 1.000000
    outer loop
      vertex 0.0000 0.0000 45.0000
      vertex 30.3109 -17.5000 45.0000
      vertex 33.8074 -9.0587 45.0000
    endloop
  endfacet
  facet normal 0.923880 -0.382683 0.000000
    outer loop
      vertex 30.3109 -17.5000 0.0000
      vertex 33.8074 -9.0587 0.0000
      vertex 33.8074 -9.0587 45.0000
    endloop
  endfacet
  facet normal 0.923880 -0.382683 0.000000
    outer loop
      vertex 30.3109 -17.5000 0.0000
      vertex 33.8074 -9.0587 45.0000
      vertex 30.3109 -17.5000 45.0000
    endloop
  endfacet
  facet normal 0.000000 0.000000 -1.000000
    outer loop
      vertex 0.0000 0.0000 0.0000
      vertex 35.0000 -0.0000 0.0000
      vertex 33.8074 -9.0587 0.0000
    endloop
  endfacet
  facet normal 0.000000 0.000000 1.000000
    outer loop
      vertex 0.0000 0.0000 45.0000
      vertex 33.8074 -9.0587 45.0000
      vertex 35.0000 -0.0000 45.0000
    endloop
  endfacet
  facet normal 0.991445 -0.130526 0.000000
    outer loop
      vertex 33.8074 -9.0587 0.0000
      vertex 35.0000 -0.0000 0.0000
      vertex 35.0000 -0.0000 45.0000
    endloop
  endfacet
  facet normal 0.991445 -0.130526 0.000000
    outer loop
      vertex 33.8074 -9.0587 0.0000
      vertex 35.0000 -0.0000 45.0000
      vertex 33.8074 -9.0587 45.0000
    endloop
  endfacet
endsolid PL_FLEX_COIL
