solid PL_LITH_FRAME
  facet normal 0.000000 0.000000 1.000000
    outer loop
      vertex 0.0000 0.0000 0.0000
      vertex 100.0000 0.0000 0.0000
      vertex 100.0000 10.0000 0.0000
    endloop
  endfacet
  facet normal 0.000000 0.000000 1.000000
    outer loop
      vertex 0.0000 0.0000 0.0000
      vertex 100.0000 10.0000 0.0000
      vertex 0.0000 10.0000 0.0000
    endloop
  endfacet
  facet normal 0.000000 0.000000 -1.000000
    outer loop
      vertex 0.0000 0.0000 6.0000
      vertex 100.0000 10.0000 6.0000
      vertex 100.0000 0.0000 6.0000
    endloop
  endfacet
  facet normal 0.000000 0.000000 -1.000000
    outer loop
      vertex 0.0000 0.0000 6.0000
      vertex 0.0000 10.0000 6.0000
      vertex 100.0000 10.0000 6.0000
    endloop
  endfacet
  facet normal 0.000000 1.000000 0.000000
    outer loop
      vertex 0.0000 0.0000 0.0000
      vertex 0.0000 0.0000 6.0000
      vertex 100.0000 0.0000 6.0000
    endloop
  endfacet
  facet normal 0.000000 1.000000 0.000000
    outer loop
      vertex 0.0000 0.0000 0.0000
      vertex 100.0000 0.0000 6.0000
      vertex 100.0000 0.0000 0.0000
    endloop
  endfacet
  facet normal 0.000000 -1.000000 0.000000
    outer loop
      vertex 0.0000 10.0000 0.0000
      vertex 100.0000 10.0000 0.0000
      vertex 100.0000 10.0000 6.0000
    endloop
  endfacet
  facet normal 0.000000 -1.000000 0.000000
    outer loop
      vertex 0.0000 10.0000 0.0000
      vertex 100.0000 10.0000 6.0000
      vertex 0.0000 10.0000 6.0000
    endloop
  endfacet
  facet normal 1.000000 0.000000 0.000000
    outer loop
      vertex 0.0000 0.0000 0.0000
      vertex 0.0000 10.0000 0.0000
      vertex 0.0000 10.0000 6.0000
    endloop
  endfacet
  facet normal 1.000000 0.000000 0.000000
    outer loop
      vertex 0.0000 0.0000 0.0000
      vertex 0.0000 10.0000 6.0000
      vertex 0.0000 0.0000 6.0000
    endloop
  endfacet
  facet normal -1.000000 0.000000 0.000000
    outer loop
      vertex 100.0000 0.0000 0.0000
      vertex 100.0000 0.0000 6.0000
      vertex 100.0000 10.0000 6.0000
    endloop
  endfacet
  facet normal -1.000000 0.000000 0.000000
    outer loop
      vertex 100.0000 0.0000 0.0000
      vertex 100.0000 10.0000 6.0000
      vertex 100.0000 10.0000 0.0000
    endloop
  endfacet
  facet normal 0.000000 0.000000 1.000000
    outer loop
      vertex 0.0000 0.0000 124.0000
      vertex 100.0000 0.0000 124.0000
      vertex 100.0000 10.0000 124.0000
    endloop
  endfacet
  facet normal 0.000000 0.000000 1.000000
    outer loop
      vertex 0.0000 0.0000 124.0000
      vertex 100.0000 10.0000 124.0000
      vertex 0.0000 10.0000 124.0000
    endloop
  endfacet
  facet normal 0.000000 0.000000 -1.000000
    outer loop
      vertex 0.0000 0.0000 130.0000
      vertex 100.0000 10.0000 130.0000
      vertex 100.0000 0.0000 130.0000
    endloop
  endfacet
  facet normal 0.000000 0.000000 -1.000000
    outer loop
      vertex 0.0000 0.0000 130.0000
      vertex 0.0000 10.0000 130.0000
      vertex 100.0000 10.0000 130.0000
    endloop
  endfacet
  facet normal 0.000000 1.000000 0.000000
    outer loop
      vertex 0.0000 0.0000 124.0000
      vertex 0.0000 0.0000 130.0000
      vertex 100.0000 0.0000 130.0000
    endloop
  endfacet
  facet normal 0.000000 1.000000 0.000000
    outer loop
      vertex 0.0000 0.0000 124.0000
      vertex 100.0000 0.0000 130.0000
      vertex 100.0000 0.0000 124.0000
    endloop
  endfacet
  facet normal 0.000000 -1.000000 0.000000
    outer loop
      vertex 0.0000 10.0000 124.0000
      vertex 100.0000 10.0000 124.0000
      vertex 100.0000 10.0000 130.0000
    endloop
  endfacet
  facet normal 0.000000 -1.000000 0.000000
    outer loop
      vertex 0.0000 10.0000 124.0000
      vertex 100.0000 10.0000 130.0000
      vertex 0.0000 10.0000 130.0000
    endloop
  endfacet
  facet normal 1.000000 0.000000 0.000000
    outer loop
      vertex 0.0000 0.0000 124.0000
      vertex 0.0000 10.0000 124.0000
      vertex 0.0000 10.0000 130.0000
    endloop
  endfacet
  facet normal 1.000000 0.000000 0.000000
    outer loop
      vertex 0.0000 0.0000 124.0000
      vertex 0.0000 10.0000 130.0000
      vertex 0.0000 0.0000 130.0000
    endloop
  endfacet
  facet normal -1.000000 0.000000 0.000000
    outer loop
      vertex 100.0000 0.0000 124.0000
      vertex 100.0000 0.0000 130.0000
      vertex 100.0000 10.0000 130.0000
    endloop
  endfacet
  facet normal -1.000000 0.000000 0.000000
    outer loop
      vertex 100.0000 0.0000 124.0000
      vertex 100.0000 10.0000 130.0000
      vertex 100.0000 10.0000 124.0000
    endloop
  endfacet
  facet normal 0.000000 0.000000 1.000000
    outer loop
      vertex 0.0000 0.0000 0.0000
      vertex 6.0000 0.0000 0.0000
      vertex 6.0000 10.0000 0.0000
    endloop
  endfacet
  facet normal 0.000000 0.000000 1.000000
    outer loop
      vertex 0.0000 0.0000 0.0000
      vertex 6.0000 10.0000 0.0000
      vertex 0.0000 10.0000 0.0000
    endloop
  endfacet
  facet normal 0.000000 0.000000 -1.000000
    outer loop
      vertex 0.0000 0.0000 130.0000
      vertex 6.0000 10.0000 130.0000
      vertex 6.0000 0.0000 130.0000
    endloop
  endfacet
  facet normal 0.000000 0.000000 -1.000000
    outer loop
      vertex 0.0000 0.0000 130.0000
      vertex 0.0000 10.0000 130.0000
      vertex 6.0000 10.0000 130.0000
    endloop
  endfacet
  facet normal 0.000000 1.000000 0.000000
    outer loop
      vertex 0.0000 0.0000 0.0000
      vertex 0.0000 0.0000 130.0000
      vertex 6.0000 0.0000 130.0000
    endloop
  endfacet
  facet normal 0.000000 1.000000 0.000000
    outer loop
      vertex 0.0000 0.0000 0.0000
      vertex 6.0000 0.0000 130.0000
      vertex 6.0000 0.0000 0.0000
    endloop
  endfacet
  facet normal 0.000000 -1.000000 0.000000
    outer loop
      vertex 0.0000 10.0000 0.0000
      vertex 6.0000 10.0000 0.0000
      vertex 6.0000 10.0000 130.0000
    endloop
  endfacet
  facet normal 0.000000 -1.000000 0.000000
    outer loop
      vertex 0.0000 10.0000 0.0000
      vertex 6.0000 10.0000 130.0000
      vertex 0.0000 10.0000 130.0000
    endloop
  endfacet
  facet normal 1.000000 0.000000 0.000000
    outer loop
      vertex 0.0000 0.0000 0.0000
      vertex 0.0000 10.0000 0.0000
      vertex 0.0000 10.0000 130.0000
    endloop
  endfacet
  facet normal 1.000000 0.000000 0.000000
    outer loop
      vertex 0.0000 0.0000 0.0000
      vertex 0.0000 10.0000 130.0000
      vertex 0.0000 0.0000 130.0000
    endloop
  endfacet
  facet normal -1.000000 0.000000 0.000000
    outer loop
      vertex 6.0000 0.0000 0.0000
      vertex 6.0000 0.0000 130.0000
      vertex 6.0000 10.0000 130.0000
    endloop
  endfacet
  facet normal -1.000000 0.000000 0.000000
    outer loop
      vertex 6.0000 0.0000 0.0000
      vertex 6.0000 10.0000 130.0000
      vertex 6.0000 10.0000 0.0000
    endloop
  endfacet
  facet normal 0.000000 0.000000 1.000000
    outer loop
      vertex 94.0000 0.0000 0.0000
      vertex 100.0000 0.0000 0.0000
      vertex 100.0000 10.0000 0.0000
    endloop
  endfacet
  facet normal 0.000000 0.000000 1.000000
    outer loop
      vertex 94.0000 0.0000 0.0000
      vertex 100.0000 10.0000 0.0000
      vertex 94.0000 10.0000 0.0000
    endloop
  endfacet
  facet normal 0.000000 0.000000 -1.000000
    outer loop
      vertex 94.0000 0.0000 130.0000
      vertex 100.0000 10.0000 130.0000
      vertex 100.0000 0.0000 130.0000
    endloop
  endfacet
  facet normal 0.000000 0.000000 -1.000000
    outer loop
      vertex 94.0000 0.0000 130.0000
      vertex 94.0000 10.0000 130.0000
      vertex 100.0000 10.0000 130.0000
    endloop
  endfacet
  facet normal 0.000000 1.000000 0.000000
    outer loop
      vertex 94.0000 0.0000 0.0000
      vertex 94.0000 0.0000 130.0000
      vertex 100.0000 0.0000 130.0000
    endloop
  endfacet
  facet normal 0.000000 1.000000 0.000000
    outer loop
      vertex 94.0000 0.0000 0.0000
      vertex 100.0000 0.0000 130.0000
      vertex 100.0000 0.0000 0.0000
    endloop
  endfacet
  facet normal 0.000000 -1.000000 0.000000
    outer loop
      vertex 94.0000 10.0000 0.0000
      vertex 100.0000 10.0000 0.0000
      vertex 100.0000 10.0000 130.0000
    endloop
  endfacet
  facet normal 0.000000 -1.000000 0.000000
    outer loop
      vertex 94.0000 10.0000 0.0000
      vertex 100.0000 10.0000 130.0000
      vertex 94.0000 10.0000 130.0000
    endloop
  endfacet
  facet normal 1.000000 0.000000 0.000000
    outer loop
      vertex 94.0000 0.0000 0.0000
      vertex 94.0000 10.0000 0.0000
      vertex 94.0000 10.0000 130.0000
    endloop
  endfacet
  facet normal 1.000000 0.000000 0.000000
    outer loop
      vertex 94.0000 0.0000 0.0000
      vertex 94.0000 10.0000 130.0000
      vertex 94.0000 0.0000 130.0000
    endloop
  endfacet
  facet normal -1.000000 0.000000 0.000000
    outer loop
      vertex 100.0000 0.0000 0.0000
      vertex 100.0000 0.0000 130.0000
      vertex 100.0000 10.0000 130.0000
    endloop
  endfacet
  facet normal -1.000000 0.000000 0.000000
    outer loop
      vertex 100.0000 0.0000 0.0000
      vertex 100.0000 10.0000 130.0000
      vertex 100.0000 10.0000 0.0000
    endloop
  endfacet
endsolid PL_LITH_FRAME
