solid PL_SOAP_DISH
  facet normal 0.000000 0.000000 1.000000
    outer loop
      vertex 0.0000 0.0000 0.0000
      vertex 110.0000 0.0000 0.0000
      vertex 110.0000 70.0000 0.0000
    endloop
  endfacet
  facet normal 0.000000 0.000000 1.000000
    outer loop
      vertex 0.0000 0.0000 0.0000
      vertex 110.0000 70.0000 0.0000
      vertex 0.0000 70.0000 0.0000
    endloop
  endfacet
  facet normal 0.000000 0.000000 -1.000000
    outer loop
      vertex 0.0000 0.0000 15.0000
      vertex 110.0000 70.0000 15.0000
      vertex 110.0000 0.0000 15.0000
    endloop
  endfacet
  facet normal 0.000000 0.000000 -1.000000
    outer loop
      vertex 0.0000 0.0000 15.0000
      vertex 0.0000 70.0000 15.0000
      vertex 110.0000 70.0000 15.0000
    endloop
  endfacet
  facet normal 0.000000 1.000000 0.000000
    outer loop
      vertex 0.0000 0.0000 0.0000
      vertex 0.0000 0.0000 15.0000
      vertex 110.0000 0.0000 15.0000
    endloop
  endfacet
  facet normal 0.000000 1.000000 0.000000
    outer loop
      vertex 0.0000 0.0000 0.0000
      vertex 110.0000 0.0000 15.0000
      vertex 110.0000 0.0000 0.0000
    endloop
  endfacet
  facet normal 0.000000 -1.000000 0.000000
    outer loop
      vertex 0.0000 70.0000 0.0000
      vertex 110.0000 70.0000 0.0000
      vertex 110.0000 70.0000 15.0000
    endloop
  endfacet
  facet normal 0.000000 -1.000000 0.000000
    outer loop
      vertex 0.0000 70.0000 0.0000
      vertex 110.0000 70.0000 15.0000
      vertex 0.0000 70.0000 15.0000
    endloop
  endfacet
  facet normal 1.000000 0.000000 0.000000
    outer loop
      vertex 0.0000 0.0000 0.0000
      vertex 0.0000 70.0000 0.0000
      vertex 0.0000 70.0000 15.0000
    endloop
  endfacet
  facet normal 1.000000 0.000000 0.000000
    outer loop
      vertex 0.0000 0.0000 0.0000
      vertex 0.0000 70.0000 15.0000
      vertex 0.0000 0.0000 15.0000
    endloop
  endfacet
  facet normal -1.000000 0.000000 0.000000
    outer loop
      vertex 110.0000 0.0000 0.0000
      vertex 110.0000 0.0000 15.0000
      vertex 110.0000 70.0000 15.0000
    endloop
  endfacet
  facet normal -1.000000 0.000000 0.000000
    outer loop
      vertex 110.0000 0.0000 0.0000
      vertex 110.0000 70.0000 15.0000
      vertex 110.0000 70.0000 0.0000
    endloop
  endfacet
endsolid PL_SOAP_DISH
